<svg xmlns="http://www.w3.org/2000/svg" width="1000" height="1000" viewBox="0 0 1000 1000">
  <defs>
    <style>
      .cls-1 {
        fill: #567cff;
      }

      .cls-1, .cls-2 {
        fill-rule: evenodd;
      }

      .cls-2 {
        fill: #fff;
      }
    </style>
  </defs>
  <path id="_1" data-name="1" class="cls-1" d="M233.1,8.1H766.9c124.264,0,225,100.736,225,225V766.9c0,124.264-100.736,225-225,225H233.1c-124.264,0-225-100.736-225-225V233.1C8.1,108.838,108.838,8.1,233.1,8.1Z"/>
  <path id="_2" data-name="2" class="cls-2" d="M109.77,711.247h84.814V254.663H109.77V711.247Zm128.4,0H575.855V632.976H325.35V587.317q0-35.713,14.311-50.628T388.37,521.78h73q56.978,0,86.653-33.855t29.672-99.082q0-43.168-12.079-72.681t-36.5-46.279a74.36,74.36,0,0,0-26.915-11.8q-15.1-3.414-43.457-3.417H238.173v78.582H423.294q36.5,0,50.022,12.114T486.839,387.6q0,28.579-14.048,40.688t-49.5,12.114H371.04q-71.427,0-102.145,30.9T238.173,573.961V711.247Zm358.426,0H790.122q57.242,0,88.622-31.681T910.123,589.8q0-38.509-12.735-64.45t-40.044-43.018q26.782-22.67,39.518-48.609T909.6,376.108q0-62.43-31.116-91.938t-96.5-29.507H596.6v77.961H753.623q32.3,0,47.528,13.511t15.23,42.087q0,27.954-15.1,41.31t-47.659,13.356H627.058v78.271H755.724q32.032,0,47.4,13.667t15.361,42.241q0,28.887-15.1,42.4t-47.659,13.512H596.6v78.271Z"/>
</svg>
