<?xml version="1.0" encoding="utf-8"?>
<!-- Generator: Adobe Illustrator 25.4.1, SVG Export Plug-In . SVG Version: 6.00 Build 0)  -->
<svg version="1.1" id="图层_1" xmlns="http://www.w3.org/2000/svg" xmlns:xlink="http://www.w3.org/1999/xlink" x="0px" y="0px"
	 viewBox="0 0 1000 1000" style="enable-background:new 0 0 1000 1000;" xml:space="preserve">
<style type="text/css">
	.st0{fill:#18B854;}
	.st1{fill:#FFFFFF;}
</style>
<g>
	<path class="st0" d="M775,1000H225C101.2,1000,0,898.8,0,775V225C0,101.2,101.2,0,225,0h550c123.8,0,225,101.2,225,225v550
		C1000,898.8,898.8,1000,775,1000z"/>
</g>
<path class="st1" d="M840.1,103.6c0-2.8,0-2.8-2.8-2.8c-2.8-2.8-5.6-5.6-8.4-5.6c-5.6-2.8-11.2-2.8-14,2.8
	c-44.8,58.9-53.3,58.9-120.5,61.7h-14c-5.6,0-8.4-2.8-5.6-5.6c0,0,25.2-39.2,28-42c2.8-2.8,2.8-2.8,2.8-5.6s0-5.6-2.8-5.6
	c-5.6-2.8-14-5.6-19.6-5.6c-5.6,0-8.4,2.8-8.4,8.4c-2.8,14-5.6,28-14,39.2c-5.6,5.6-14,2.8-33.6,2.8h-14
	c-25.2-2.8-50.4-5.6-75.7-11.2c-5.6-2.8-11.2-2.8-5.6-14c5.6-11.2,19.6-39.2,22.4-47.6c2.8-5.6,2.8-11.2-5.6-14
	c-8.4,0-14,0-25.2,11.2c0,16.8-5.6,33.6-16.8,50.4c-11.2,14-22.4,19.6-30.8,25.2c-2.8,0-5.6,2.8-5.6,2.8c-5.6,0-11.2,2.8-11.2,2.8
	c-2.8,0,2.8-8.4,8.4-16.8c2.8-2.8,5.6-5.6,5.6-8.4s0-5.6,2.8-8.4c2.8-5.6,8.4-14,8.4-16.8c2.8-8.4,0-14-8.4-16.8
	c-8.4-2.8-11.2-2.8-14,2.8c0,2.8-2.8,11.2-2.8,16.8c-2.8,8.4-2.8,19.6-8.4,30.8c-14,22.4-14,25.2-19.6,25.2
	c-2.8,2.8-5.6,2.8-8.4,2.8c-11.2,2.8-19.6,5.6-22.4-8.4c-2.8-14-2.8-39.2,8.4-53.3l8.4-8.4c2.8-2.8,5.6-2.8,5.6-5.6v-5.6
	c0,0,0-2.8-2.8-2.8c-2.8,0-8.4,0-16.8,5.6c-5.6,8.4-11.2,16.8-14,28c-2.8,11.2-2.8,33.6,0,58.9c0,2.8,0,2.8-2.8,2.8h-2.8
	c-2.8,0-14,2.8-16.8-11.2c-2.8-11.2-5.6-33.6,0-44.8c0-2.8,2.8-2.8,2.8-5.6c5.6-5.6,5.6-8.4,2.8-11.2c-2.8-2.8-5.6-2.8-8.4-2.8
	c-5.6,0-8.4,5.6-11.2,8.4c-2.8,8.4-5.6,14-5.6,22.4c0,16.8,2.8,36.4,5.6,53.3c0,8.4-5.6,16.8-11.2,25.2c-2.8,5.6-8.4,11.2-11.2,14
	c-2.8,2.8-2.8,2.8-5.6,0c-11.2-11.2-72.9-53.3-86.9-58.9c-16.8-5.6-36.4,2.8-30.8,19.6c11.2,25.2,22.4,47.6,33.6,70.1
	c19.6,33.6,19.6,53.3-11.2,98.1c-2.8,5.6-5.6,8.4-8.4,14c-30.8,42-64.5,86.9-53.3,142.9c8.4,50.4,36.4,75.7,61.7,100.9
	c30.8,28,61.7,58.9,61.7,134.5v25.2c2.8,16.8,2.8,30.8,0,53.3c-5.6,47.6-19.6,75.7-30.8,92.5c-2.8,2.8-5.6,5.6-5.6,8.4
	c0,0,0,2.8,2.8,2.8h2.8c5.6,0,11.2,0,11.2,2.8c0,2.8,0,2.8,2.8,2.8h47.6c5.6,0,8.4-5.6,8.4-8.4c8.4-39.2,14-78.5,14-117.7
	c0-22.4,2.8-47.6,8.4-70.1c0-2.8,2.8-8.4,2.8-11.2c5.6-28,8.4-42,33.6-47.6c25.2-5.6,100.9-5.6,179.4,14c47.6,11.2,56.1,28,64.5,42
	c2.8,5.6,5.6,11.2,11.2,14c39.2,33.6,50.4,50.4,50.4,81.3c0,28-11.2,70.1-22.4,86.9c-5.6,11.2,0,14,2.8,14h36.4c2.8,0,5.6,0,5.6-5.6
	c8.4-47.6,8.4-61.7,8.4-72.9v-2.8c0-22.4-5.6-47.6-14-67.3c14,25.2,19.6,39.2,22.4,58.9c5.6,42,0,70.1-5.6,89.7
	c-5.6,8.4,0,8.4,5.6,8.4h30.8c8.4,0,8.4,0,8.4-5.6c0-8.4-2.8-92.5-16.8-128.9c-8.4-25.2-19.6-39.2-28-47.6
	c-5.6-8.4-11.2-14-11.2-22.4c-5.6-30.8,8.4-70.1,14-78.5c0-2.8,2.8-2.8,2.8-2.8c5.6-2.8,28-8.4,8.4-33.6
	c-33.6-39.2-78.5-72.9-199-86.9c-148.5-16.8-187.8-39.2-213-106.5c-19.6-50.4,16.8-86.9,33.6-106.5l2.8-2.8c11.2,2.8,28,5.6,19.6-14
	h8.4c8.4,0,22.4,2.8,42,2.8c16.8,0,16.8-11.2,5.6-16.8c-8.4-2.8-16.8-5.6-22.4-8.4c-14-5.6-25.2-8.4-30.8-19.6
	c-5.6-8.4-5.6-16.8,0-25.2c5.6-14,14-25.2,25.2-33.6c19.6-16.8,28-19.6,58.9-11.2c14,2.8,25.2,5.6,39.2,11.2
	c16.8,5.6,39.2,11.2,67.3,19.6c19.6,5.6,98.1,25.2,140.1-39.2h5.6c33.6-2.8,58.9-5.6,114.9-67.3
	C845.7,106.4,842.9,106.4,840.1,103.6L840.1,103.6z M573.8,170.9c-2.8,8.4-8.4,25.2-22.4,19.6c-16.8-2.8-72.9-19.6-81.3-25.2
	c0,0,16.8-8.4,39.2-11.2c19.6-2.8,42,0,61.7,0C579.4,154,576.6,162.4,573.8,170.9L573.8,170.9z M688.7,176.5c-5.6,8.4-14,22.4-42,28
	c-16.8,2.8-42,0-53.3-2.8h-5.6c-2.8,0-5.6,0-5.6-2.8c0,0,0-2.8,2.8-8.4c2.8-2.8,5.6-8.4,8.4-14s8.4-8.4,8.4-11.2
	c2.8-2.8,2.8-5.6,8.4-5.6c2.8,0,14,0,25.2,2.8c2.8,2.8,8.4,2.8,11.2,2.8c11.2,2.8,28,5.6,42,8.4L688.7,176.5L688.7,176.5z"/>
</svg>
