<?xml version="1.0" encoding="utf-8"?>
<!-- Generator: Adobe Illustrator 25.4.1, SVG Export Plug-In . SVG Version: 6.00 Build 0)  -->
<svg version="1.1" id="图层_1" xmlns="http://www.w3.org/2000/svg" xmlns:xlink="http://www.w3.org/1999/xlink" x="0px" y="0px"
	 viewBox="0 0 1000 1000" style="enable-background:new 0 0 1000 1000;" xml:space="preserve">
<style type="text/css">
	.st0{fill-rule:evenodd;clip-rule:evenodd;fill:#E31113;}
	.st1{fill-rule:evenodd;clip-rule:evenodd;fill:#FFFFFF;}
</style>
<path id="吾爱破解_1" class="st0" d="M1000,789.3c-6.9,0.6-11.9,3.5-12.1,11.1c-2.8,4.2-0.2,12.5,0,18.2c-3,1.6-7.5,3.9-9.1,7.1
	c-2.2,3-3.8,34.3-1,38.5c1.9,5.1,6.8,4.5,9.1,9.1c1.1,1.7,1.1,5,1,8.1c-15.4,11.5-10.4,29.7-10.1,54.7c-1.7,1-3.3,3.4-5,4.1
	c-3,1.1-5.7-0.4-8,1l-15.1,17.2l-11.1,4.1c-3.8,2.8-3.7,11.1-8,13.2h-8c-0.7,1-1.3,2-2,3c-5.1,3.3-10.7,4-19.1,4.1
	c-2.5-3.4-6.2-6-9.1-9.1c-6.6-0.1-9.1,1.7-12.1,5.1c-4.4-1.6-5.7-5.8-10.1-7.1c-3.9-1.2-9.6,0.8-12.1,1c-14,1.3-33.5-1.9-48.3,1
	c-1.8,3.1-4.7,9.5-8,11.1c-5.1,2.9-16.6-7.4-26.2-5.1c-2,0.5-6.7,2.6-8,3c-6.1,1.9-14.2-1.7-19.1,1c-7.2,4-7.9,10.8-20.1,11.1
	c-1.3-2.1-2.1-2.3-3-5.1c-1.4-2.7,0.7-8,0-12.2c-3.1-1.8-3.9-2.8-9.1-3c-3.8,4.2-14.4,17.3-20.1,18.2c-2.1-3.5-14.9-17.7-18.1-19.2
	c-4.4-2.9-25,0-29.2,1c-3.6,8-9,12-14.1,18.2c-1.8-0.6-1-0.2-2-1c-6.4-7-7.7-9.5-22.1-9.1c-9.1,9.6-15.5,13.8-33.2,10.1
	c-0.9-3.1-1.6-3-2-7.1c1.8-1.9,1.9-3.2,2-7.1c-2.1-2.2-1.7-3.7-5-5.1c-1.8-1.3-5.7-1.1-9.1-1c-1.6,2.8-4.5,6.2-7,5.1
	c-2.7-1.2-5.1-2.9-7-5.1l-13.1,1c-3.8,2.2-4.4,9.2-10.1,7.1c-6.8-3-3.9-8.1-15.1-8.1c-1.5,2.2-5,4.7-6,7.1v8.1
	c-1.8,4.8-7.2,8-14.1,8.1c-2.9-4.5-13.6-17.5-22.1-12.2c-4.6,2.9-5.5,13.1-13.1,10.1c-12.5-3.3-4.4-11.1-24.1-11.1
	c-3.5,2.5-10,1.9-14.1,1c-1.7-5.9-4.9-9.3-13.1-9.1c-2.9,3.3-4.7,5-11.1,5.1c-3.6-3.5-8.8-4.2-16.1-4.1c-3,4.1-7,7-14.1,7.1
	c-3.3-5.7-5.6-10.2-15.1-10.1c-3.5-2.3-18.4-0.5-21.1,2c-2.2,2.1-2.4,6.3-5,8.1c-3.7,2.6-7.3,2.7-10.1,6.1
	c-4.5-2-14.7-10.5-23.1-5.1c-7.8,3.1-5.4,9.1-18.1,9.1c-2.3-2.6-6-7.6-9.1-9.1c-9.6-7.5-19,5.6-26.2,7.1c-4-6.6-12.4-15.8-22.1-16.2
	c-3.6,5.8-8.7,10-18.1,10.1c-7.2-16.3-20-12.7-42.3-12.2c-5.8,4.6-14.6,1.2-23.1,1c-5.2,8-15.3,8.3-19.1,13.2
	c-3.2,4.1-1.2,10.5-6,13.2v-1c-10.2-8.4-3.3-26.4-21.1-26.3c-4.7,7.7-11.2,12.9-17.1,19.3l-3-1c-1.7-4-6-9.6-7-13.2l1-8.1
	c-0.2-0.4-13.5-12.9-15.1-13.2c-1.2,2.3-1.6,2.3-2,6.1c0.9,1.3,0.9,2.5,1,5.1c-2.1,1.1-1.8,1.5-5,2c-1.7,0-2.7,0.5-4-3
	c-1.6-2.8-0.1-14.3,0-20.3c-4.5-3-11.4-6.3-12.1-13.2c-2.2-3.4-2-12.3-2-17.2C13.2,913,6.7,908.9,6,901.7c15.4-11.6-4-27.9-6-36.5
	c9.8-5.6,6.3-7.6,12.1-15.2c2.7-3.5,7.6-4,9.1-9.1l-1-15.2c-4.7-2.7-9.8-4.6-10.1-12.2c2.9-1.9,2.9-2.8,8-3c1.7,2.2,2.8,3.1,5,2
	c3.1-1.1,2.9-1,4-4.1c2.6-4.6-2.4-6.1-1-11.1c0.9-3.2,5-8.3,6-12.2c2.5-9.2-1.3-14.6,0-22.3c5.6-2.4,8.2-3.6,8-12.2l-7-5.1
	c-9.1-3.1-13.9,1.7-15.1-11.1c-0.8-1-0.4-0.3-1-2c4.2-3.2,4.4-5.9,12.1-6.1c2.4,1.6,4.3,0.6,7,0c1.8-3,2.8-2.9,3-8.1
	c-7-4.5-12.2-17.3-13.1-27.4c4.6-2.3,13.1-4,15.1-9.1c1.1-1.6,1-4.1,1-7.1c-5.1-3.4-9.4-4.2-19.1-4.1c-3.8-6.2-8.9-11.4-14.1-16.2
	c1.7-8.6-0.5-20.5,1-29.4c7.6-4.3,10.5-5.3,10.1-18.2c-11.2-9.5-10.4-15.8-10.1-36.5c10.6-4.6,24.4-8.1,28.2-19.2
	c0-1.4,0.8-2.5-2-4.1C28.4,541,11,547.4,11.1,536c3.7-1.8,17.8-12.9,19.1-16.2c7.6-13.3-27.5-16.4-29.2-27.4c2.3-1.2,2.3-1.7,6-2
	c3.8-2.4,14.9-0.1,20.1-1c2.2-3.6,3.1-5.4,3-12.2c-0.5-0.6-10.1-14.2-10.1-14.2c-1.8-5.3,0.2-16.5,1-20.3c-0.3-7.8-0.7-15.5-1-23.3
	c4.9-3.2,8.1-7,12.1-11.1c0.4-5.2,1-9.3,0-14.2c-8.3-2.4-15.7-7.4-21.1-14.2c2.8-14.3,11.2-16.7,20.1-24.3c-0.6-1.8-0.2-1-1-2
	c-3.5-11.1-14.8-16.9-22.1-24.3c1.8-8.2,7.9-11.5,13.1-16.2c1-16.3-1.8-15.1-11.1-23.3c0.4-20.5,17.1-6.1,22.1-19.2
	c3.3-4,2-17.2-1-21.3c-3-7.9-11.4-5.7-12.1-16.2c1.9-1.8,2.4-2.7,3-6.1c-3.7,0.6-4.9,2.1-7,1c-3.8-1.3-3.9-2.1-4-7.1
	c3.1-2,6.8-3.7,10.1-6.1c4.7-3.4,2-8.1,10.1-9.1c1.4,2.5,2.4,7.7,4,10.1v-1c2.1-2.3,2.8-5.9,3-10.1c-1.5-1.4-2.2-2.8-4-4.1
	c-2.6-2-6.8-2.8-11.1-3c-3,3.6-5.2,7.2-11.1,8.1c-2.9-4.7-3.2-10.8-3-19.2c1.6-1.8,2.2-4.6,4-6.1c1.7-1.3,3.8-1.3,5-3
	c1.5-2.1,1.1-5.5,3-7.1c3.3-2.8,12.9-3.8,11.1-11.1c-1.5-6-8.9-3-10.1-11.1c4.9-2.7,6.5-5.3,10.1-9.1c0.1-7.3,0.1-8.8-1-14.2
	c-8.8-5-14-11.8-21.1-18.2c-0.1-7.9-0.4-39.9,0-40.5c4.2-11.1,21.6-14.7,22.1-28.4c-1.1-1.8-1-2.3,0-4.1
	c0.1-0.4,12.1-15.2,12.1-15.2h11.1c4.3-3.5,18.9-13.8,28.2-11.1c5.9,1.7,7.6,9.2,13.1,11.1h13.1c4.1,1.2,9.8,5.1,14.1,6.1
	c7.2,1.7,14.3-6.1,25.2-6.1c3.5,3.8,7.5,7.3,11.1,11.1c7.7,0.6,11.5-0.4,18.1-2c2.3-4.5,3.1-8.4,3-16.2l3-2c2.1-1.7,4.2-1.9,8-2
	c6.6,7.2,13.6,14,20.1,21.3c13-0.5,7.3-7.2,14.1-10.1h26.2c1.6-1.5,2-1.6,5-2c1.7,3.5,3.4,9.4,7,11.1c3.3,2.3,10.1,2.9,15.1,3
	c5.6-5.1,16.3-19.8,24.1-20.3c1.6,5.8,4.2,8.3,12.1,8.1c10.2-10,15.8,1.7,30.2-3c1.6-0.5,3.5-3.6,5-4.1c6.8-2.1,9.5,3.9,13.1,5.1
	c3.6,1.2,19.5,1.7,23.1,2c1.8,3,2.8,2.9,3,8.1c-2.9,3.1-1.6,6.5,0,10.1c1.1,0.5,2.1,1.2,3,2l10.1-1c1.4-6.7-0.7-26.1,5-29.4l14.1-2
	c3.5-1.9,3-7,7-6.1c6.7,2.7,8.9,10.5,19.1,12.2c10.2,1.6,17.5-9.4,25.2-11.1c4.1,3.9,10.3,3.8,11.1,11.2c-5.1,1.2-12.3,2-14.1,7.1
	c-0.8,1.1-0.6,1-1,3c1.5,1.4,2.2,2.8,4,4.1c7.5,5.6,26.4,2.2,34.2,4.1c0.8,1.5,1.8,2.8,3,4.1c-0.6,3-1,6.1-1,9.1
	c1.5,0.8,2.8,1.8,4,3l6-2c4.3-9.9,3.1-22.5,3-34.4l2-1c4.9-3.8,22.6-1.2,32.2-1c5.1,7.8,13.6,13.7,20.1,20.3h9.1
	c4.1-3.7,7.7-3.2,8-11.1c-2.3-2.6-1.7-3.5-1-7.1c2.5-1.1,3.3-1.7,7-2c2.4,3.6,5.1,7,8,10.1h14.1c8.1-2.7,13.5-15.8,29.2-11.1
	c7.8,2.3,4.9,9.7,16.1,10.1c4.7-7.3,15.1-15.7,26.2-16.2c3.4,4.2,8.3,3,13.1,6.1c6.8,4.4,13.6,15.2,19.1,21.3h6
	c5.4-6.1,16.7-18,27.2-18.2c1.1,2.1,1.4,1.9,2,5.1c-1.8,2.6-0.6,6.3,0,9.1c1.8,1.1,3.5,2.5,5,4.1h11.1c2.6-2.6,7.1-4,9.1-7.1
	c2.7-4.2,0.1-7,5-9.1c1.9-1.7,18.5-4,23.1-4.1c1.9,2.8,15.9,19.3,18.1,20.3h11.1c1.7,0.8,2.6,0.2,6,0c4.5-7.8,6.9-10.6,20.1-10.1
	c3.5,2.5,18,1.2,21.1-1c5.7-2.2,6.2-9.1,11.1-11.1h16.1c10.3,11.5,13,12.5,35.2,12.2c2.5,3.9,12.1,11.1,13.1,14.2
	c1.6,5.1-2.1,8.5,1,13.2c2.9,4.3,7.6,2.7,9.1,9.1c-2.4,1.3-2.8,1.8-7,2c-4.5-5.3-7.6-6.4-18.1-6.1c-0.5,1.3-0.9,2.7-1,4
	c7.1,6.6,10.4,14.1,16.1,22.3c4.7,6.7,10.9,2.6,11.1,15.2c-8.2,9.7,4.1,37.7,0,44.6c-2.3,6.6-8.7,5.2-11.1,11.1c-1,1.4-1,3.3-1,6.1
	c3.1,1.9,6,4.9,10.1,6.1h9.1c0.3,1,0.7,2,1,3c1.7,2.5,0.7,6.1-1,8.1c-4.9,4.3-13.6,3.3-16.1,10.1c-0.8,1.1-0.6,1-1,3
	c8.8,8.1,20.5,14.1,21.1,30.4c-3.5,2-7.1,4.2-11.1,6.1c-0.3,2.4-0.7,4.7-1,7.1c3.1,3.7,5.3,7.1,9.1,10.1c-2.6,11.3,2.2,11.8,2,21.3
	c-4.7,1.4-7,4.2-10.1,7.1c-0.1,6.3,0,13.4,1,18.2c4.5,1,7.2,2.2,8,7.1c-4.1,2.4-6.8,5-10.1,8.1c0.3,4.1,0.7,8.1,1,12.2
	c-4.1,10.4-14.5,6.8-11.1,25.3c4.6,2.4,11.4,3.4,12.1,10.1c-4.1,2.6-12.7,12.1-15.1,13.2c-3.3,1.5-9.9,0.8-13.1,2
	c-0.5,1.1-1.2,2.1-2,3c0.3,1,0.7,2,1,3c5.8,2.7,16.2,3.8,25.2,4.1c4.4,6.7,8.3,12,14.1,17.2c0,2.7-0.4,5.4-1,8.1
	c-2.5,0.9-6.2,1.1-10.1,1c-4-2.3-13.4,1.9-18.1,3c-3,5.4-6.9,12.3-8,19.2c2.7,1.7,2.5,2.6,7,3c9.4,5.6,12.7-8.6,22.1-5.1
	c2,0.7,8.9,28.8,9.1,33.4l-12.1,11.1l-9.1,3c-1.3,1-1.3,2.2-2,4.1c-7.3,11.3,6.2,19.8,7,27.4c-3.3,1.8-3.7,3.6-6,6.1
	c0.5,1.3,0.9,2.7,1,4.1c4.7,2.7,10.4,5.2,11.1,12.2c-7.3,8-2.2,24.9-2,38.5c-7.4,5.4-11.4,9.7-11.1,23.3c5.5,3.3,20.7,18,21.1,25.3
	c-4.9,4.8,0.3,19.5,0,28.4c-3,1.8-11.6,4.6-13.1,8.1c-0.8,1.2-0.8,1.7-1,4.1c4.6,2.9,11.4,3.9,12.1,11.1c0.8,1.2,0.8,1.7,1,4.1
	c-7.3,4-11.5,9.3-9.1,20.3c6.6,1.6,8.4,4.7,12.1,9.1c-2.6,10.8-10.8,8.8-12.1,18.2c-2.5,4.2-0.6,24.6-2,32.4
	c-3.8,1.7-7.2,4.1-10.1,7.1c-0.4,13.6-2.5,34.7,7,38.5c1.2,0.8,1.7,0.8,4,1C980.4,784.3,997.8,776.8,1000,789.3z"/>
<path id="破吾_解爱" class="st1" d="M454,145.5c1.1-19.7-16.3-29-52.2-27.9h-26.1c0-16.9,1.1-33.8,3.5-50.5h-38.3V88
	c1.1,15.1,1.7,26.7,1.7,34.8c-32.5,4.7-58.1,9.9-76.6,15.7l1.7-8.7c-48.8-1.1-98.1-3.5-148-7l-3.5,33.1h40.1
	c-20.9,41.8-45.9,85.9-74.9,132.4l27.9,17.4c26.7-56.9,54-105.1,81.9-144.6l-10.4-5.2c24.4,0,51.7,1.7,81.9,5.2l1.7-10.4l7,20.9h3.5
	c-5.8,92.9-15.7,184.1-29.6,273.4l36.6,3.5c4.6-66.2,9.9-127.1,15.7-182.9l15.7,24.4c32.5-17.4,59.8-26.7,81.9-27.9
	c12.8,1.2,19.7,7,20.9,17.4c0,20.9-11,43-33.1,66.2c-4.7-3.5-12.2-9.3-22.6-17.4c-10.5-7-18.6-12.2-24.4-15.7l-20.9,24.4
	c4.6,3.5,12.2,8.1,22.6,13.9c9.3,7,16.2,12.2,20.9,15.7c-17.4,13.9-38.9,27.3-64.4,40.1l20.9,24.4c30.2-12.8,54.6-27.3,73.1-43.5
	c8.1,4.7,19.7,12.8,34.8,24.4c6.1,4.5,12.5,8.6,19.2,12.2l24.4-20.9c-5.8-4.6-15.1-11-27.9-19.2c-11.6-8.1-20.9-13.9-27.9-17.4
	c26.7-29,40.1-56.9,40.1-83.6c0-34.8-18.6-52.3-55.7-52.2h-15.7c0-9.3-0.6-22.6-1.7-40.1c0-18.6-0.6-31.9-1.7-40.1h27.9
	c11.6,0,16.8,1.7,15.7,5.2c1.1,4.7-5.8,15.7-20.9,33.1l31.4,15.7C447,179.2,455.1,159.5,454,145.5L454,145.5L454,145.5z
	 M124.8,324.9c1.1,44.1,20.3,66.8,57.5,67.9c44.1-4.6,67.9-38.9,71.4-102.8c0-40.6-17.4-60.4-52.2-59.2c-14.8,0.1-29.5,2.5-43.5,7
	l-8.7-5.2C134.2,261.1,125.9,292.7,124.8,324.9L124.8,324.9z M220.6,290.1c-2.3,44.1-14.5,67.9-36.6,71.4
	c-17.4,0-26.7-10.4-27.9-31.4c0-20.9,4.1-42.4,12.2-64.4c8.1-2.3,9.3-2.3,3.5,0c9.3-2.3,16.2-3.5,20.9-3.5
	C212.5,261,221.7,270.3,220.6,290.1L220.6,290.1L220.6,290.1z M299,258.7c3.5-34.8,8.1-67.3,13.9-97.5c10.1-3.4,20.7-5.2,31.4-5.2
	v85.3C332.6,244.8,317.5,250.6,299,258.7L299,258.7L299,258.7z M903.3,277.9l-1.7-34.8c-24.4,1.2-49.9,2.9-76.6,5.2
	c4.6-13.5,6.9-27.6,7-41.8c1.1-30.2-17.4-44.7-55.7-43.5c-24.4,0-51.1,2.3-80.1,7c1.1-4.6,2.3-12.2,3.5-22.6
	c2.3-8.1,3.5-13.9,3.5-17.4c32.5-1.1,43.5-1.7,33.1-1.7c56.9-1.1,101-2.3,132.4-3.5l1.7-33.1c-113.8,7-212.5,11-296.1,12.2v34.8
	c30.7-3.4,61.5-5.1,92.3-5.2c-1.2,11.6-2.9,25.6-5.2,41.8c-6.3,1.5-12.7,2.6-19.2,3.5c-22.1,4.7-37.2,8.1-45.3,10.4l8.7,33.1
	c1.3-0.1,2.6-0.7,3.5-1.7c18.6-4.6,34.2-8.1,47-10.4c-1.6,6.9-2.7,13.9-3.5,20.9c-2.3,10.4-4.1,18-5.2,22.6
	c-34.8,1.2-69.1,1.8-102.8,1.7l1.7,34.8C667,281.9,786,277.9,903.3,277.9L903.3,277.9L903.3,277.9z M595,380.6
	c2.3,40.6,42.4,61.5,120.2,62.7C810.4,441,858,413.7,858,361.5c0-39.5-26.7-59.2-80.1-59.2c-48.8,0-93.5,5.8-134.1,17.4l5.2-5.2
	L615.9,304C603.2,322.6,596.2,348.1,595,380.6L595,380.6L595,380.6z M819.7,364.9c-2.3,31.4-41.8,47.6-118.4,48.8
	c-47.6,0-71.4-14.5-71.4-43.5v-10.5c36-16.2,85.9-24.4,149.8-24.4C807.5,334.2,820.9,344.1,819.7,364.9L819.7,364.9L819.7,364.9z
	 M687.4,230.8c1.1-11.6,2.3-20.3,3.5-26.1c33.7-5.8,62.1-9.3,85.3-10.4c13.9-1.1,20.3,4.1,19.2,15.7c0,12.8-3.5,26.1-10.5,40.1
	c-11.6,1.2-28.5,1.8-50.5,1.7c-22.1,1.2-38.9,1.8-50.5,1.7C683.9,248.9,685,241.3,687.4,230.8L687.4,230.8L687.4,230.8z
	 M321.6,856.8c17.4-1.1,30.8-2.3,40.1-3.5c-1.2,5.8-1.8,15.1-1.7,27.9c-1,8.1-1.6,16.2-1.7,24.4h36.6c-0.1-8.7-0.7-17.5-1.7-26.1
	c0-12.8-0.6-22.6-1.7-29.6c11.6-1.1,27.3-2.3,47-3.5c10.5-1.1,18-1.7,22.6-1.7v-33.1c-23.2,4.7-46.5,8.1-69.7,10.5v-47H454v-29.6
	c-20.9,1.2-41.8,1.8-62.7,1.7c0.1-9.3,0.6-18.6,1.7-27.9l-34.8,1.7c0.2,4.1,0.8,8.2,1.7,12.2v13.9h-29.6c1.1-3.5,3.5-8.1,7-13.9
	c2.3-5.8,4.1-9.9,5.2-12.2l-27.9-12.2c-4.7,13.9-12.8,33.1-24.4,57.5c-3.5,5.8-5.8,10.5-7,13.9v-47c1.1-44.1-11-69.1-36.6-74.9
	c22-19.7,33.1-36.6,33.1-50.5c-1.2-17.4-16.3-26.7-45.3-27.9c-16.3,0-34.3,2.3-54,7c4.6-4.6,11-10.4,19.2-17.4
	c9.3-8.1,15.7-13.9,19.2-17.4L191,529.4c-31.3,36-65.1,69.7-101,101l26.1,20.9c11.6-13.9,24.4-26.7,38.3-38.3l3.5,12.2
	c22-9.3,47.6-15.1,76.6-17.4c5.8,0,8.7,1.7,8.7,5.2c-2.3,11.6-18,27.9-47,48.8c-11.6,2.3-27.9,5.8-48.8,10.5
	c-2.8,0.8-5.8,1.4-8.7,1.7c0.1-3,0.7-5.9,1.7-8.7v-7l-34.8,1.7c7,85.9,9.9,166.6,8.7,242.1l34.8-3.5c-3.5-18.6-5.8-40-7-64.4
	c12.8-1.1,25-1.7,36.6-1.7c0,24.4-0.6,46.4-1.7,66.2h29.6v-64.4c9.3,0,18.6,0.6,27.9,1.7l1.7-31.3h-29.6v-41.8
	c9.2,1.1,18.6,1.7,27.9,1.7v-29.6h-26.1v-43.5c5.2-1.1,10.4-1.7,15.7-1.7c19.7-3.5,28.4,13.9,26.1,52.2c0.1,54.2-4,108.4-12.2,162
	l33.1,5.2c5.8-31.4,9.9-72,12.2-121.9l26.1,10.5c1.5-3.4,2.7-6.9,3.5-10.5c2.3-4.6,3.5-8.1,3.5-10.5c15.1,0,29.6-0.6,43.5-1.7
	c1.1,16.3,1.7,33.1,1.7,50.5c-26.7,1.2-52.3,2.9-76.6,5.2l1.7,29.6C294.9,860.3,306.5,859.1,321.6,856.8L321.6,856.8L321.6,856.8z
	 M375.6,590.3h7c29-2.3,41.8,6.4,38.3,26.1c4.6,43-15.1,60.4-59.2,52.2l3.5,33.1c66.2,4.7,97-22.1,92.3-80.1
	c4.6-47.6-20.3-69.7-74.9-66.2c-33.7,0-64.5,4.1-92.3,12.2l12.2,34.8c8.1-3.5,19.7-6.4,34.8-8.7c-13.9,38.3-29,72.6-45.3,102.8
	l31.4,12.2C339.6,668.1,357,628.7,375.6,590.3L375.6,590.3L375.6,590.3z M178.8,804.6c-5.8-0.2-11.7-0.8-17.4-1.7h-19.2
	c-1.2-13.9-1.8-27.3-1.7-40.1h38.3L178.8,804.6L178.8,804.6L178.8,804.6z M138.7,708.8c10.4-4.6,23.2-8.7,38.3-12.2
	c0,12.8,0.6,25.6,1.7,38.3c-7-0.2-14-0.8-20.9-1.7h-19.2L138.7,708.8L138.7,708.8z M609,602.5c8.1-2.3,13.9-3.5,17.4-3.5
	c8,17.2,13.9,35.3,17.4,54c-14.2,3.2-28.1,7.3-41.8,12.2l-7-19.2L562,658.3c10.5,19.8,20.3,42.4,29.6,67.9l33.1-10.5
	c-3.5-7-7-14.5-10.5-22.6c22.4-6.4,45-11.6,67.9-15.7c-9.3,16.2-17.4,33.1-24.4,50.5c-31.4,1.2-61.5,3.5-90.6,7l5.2,33.1
	c8.1-1.1,19.7-2.3,34.8-3.5c15.1-2.3,26.1-3.5,33.1-3.5c-24.4,48.8-49.3,95.8-74.9,141.1l33.1,13.9c19.7-36,38.9-74.3,57.5-115
	l10.5,22.6c52.2-17.4,98.1-27.3,137.6-29.6c12.8,0,19.2,4.1,19.2,12.2c0,10.4-16.8,23.8-50.5,40.1c-20.9-10.4-42.4-21.5-64.4-33.1
	l-17.4,29.6c6.8,3.3,13.8,6.2,20.9,8.7c9.3,4.7,16.2,8.1,20.9,10.5c-33.7,10.5-62.7,18-87.1,22.6l13.9,29.6
	c45.3-12.8,83-23.8,113.2-33.1c27.3,10.7,54.1,23,80.1,36.6l17.4-27.9c-20.8-7.4-41.2-16.2-61-26.1c34.8-18.6,52.3-38.3,52.2-59.2
	c1.1-27.9-18.6-41.2-59.2-40.1c-29,0-75.5,8.1-139.3,24.4c2.3-3.5,5.2-9.3,8.7-17.4c4.6-7,7.5-12.2,8.7-15.7
	c68.5-7,135.8-13.9,202-20.9l-3.5-34.8l-5.2,1.7c11.6-17.4,17.4-31.3,17.4-41.8c0-22-21.5-33.1-64.4-33.1h-12.2
	c-4.6,1-9.2,1.6-13.9,1.7c11.6-13.9,24.4-26.7,38.3-38.3l-22.6-19.2c11.1,0.1,22.2-1.1,33.1-3.5l-7-31.3c-5.8,1.2-15.1,2.3-27.9,3.5
	c-102.2,15.1-179.4,25.6-231.6,31.3l7,34.8C594.5,604.9,600.8,603.7,609,602.5L609,602.5L609,602.5z M851.1,668.7
	c-1.2,8.1-7,16.3-17.4,24.4l26.1,10.5c-53.4,8.1-107.4,15.1-162,20.9c7.9-17,17.2-33.3,27.9-48.8l-12.2-5.2
	c58-9.3,95.2-13.9,111.5-13.9C842.4,656.5,851.1,660.6,851.1,668.7L851.1,668.7L851.1,668.7z M769.2,632.1
	c-10.5,0-21.1,1.2-31.3,3.5c-2.3-8.1-4.7-19.7-7-34.8c-1.2-8.1-2.3-13.9-3.5-17.4c28.1-5.7,56.7-9.2,85.3-10.5
	c-4.3,4.4-8.4,9.1-12.2,13.9c-17.4,16.3-30.8,28.5-40.1,36.6L769.2,632.1z M706.5,640.8c-10.7,1.2-21.2,3.5-31.3,7
	c-7-18.6-11.6-33.1-13.9-43.5c-0.8-3.6-2-7.1-3.5-10.5c3.5,0,9.3-1.1,17.4-3.5c7-0.8,14-1.9,20.9-3.5
	C701.9,604.3,705.4,622.5,706.5,640.8L706.5,640.8L706.5,640.8z"/>
</svg>
