<?xml version="1.0" encoding="utf-8"?>
<!-- Generator: Adobe Illustrator 25.4.1, SVG Export Plug-In . SVG Version: 6.00 Build 0)  -->
<svg version="1.1" id="图层_1" xmlns="http://www.w3.org/2000/svg" xmlns:xlink="http://www.w3.org/1999/xlink" x="0px" y="0px"
	 viewBox="0 0 1000 1000" style="enable-background:new 0 0 1000 1000;" xml:space="preserve">
<style type="text/css">
	.st0{fill:url(#SVGID_1_);}
	.st1{fill:url(#SVGID_00000006675536857337539770000004214943675584188045_);}
	.st2{fill:#FFFFFF;}
</style>
<linearGradient id="SVGID_1_" gradientUnits="userSpaceOnUse" x1="128.2475" y1="794.9266" x2="852.0136" y2="185.3044" gradientTransform="matrix(1 0 0 -1 0 1002)">
	<stop  offset="0" style="stop-color:#000000"/>
	<stop  offset="1" style="stop-color:#000000;stop-opacity:0.75"/>
</linearGradient>
<path class="st0" d="M764.2,549.2c-7.4-2-12.2-9.4-10.5-16.9c33.7-154.6-60.4-310.4-215.4-351.8c-159.4-42.6-323.8,51.8-366.9,210.5
	c0,0.1,0,0.1-0.1,0.3c0,0.1-0.1,0.3-0.1,0.5c-26.2,98.3-8.7,201.4,49.8,286.6c40.7,59.3,99.4,104.7,167.1,129.4
	c189.1,68.8,392.6-34.3,452.8-218.7c3.1-9.6-2.5-19.8-12.3-22.5L764.2,549.2z M450.1,699c-58-15.5-106.5-52.6-136.5-104.4
	c-30-51.8-38-112-22.5-169.8c25.7-94.5,123.6-150.7,218.6-125.3c90.1,24.1,145.7,113.1,129.6,203c-1.5,8.5,3.6,16.7,11.9,18.9
	l60.5,16.2c7.7,2.1,12,10.2,9.4,17.6C683.2,665.6,564.9,729.6,450.1,699z"/>
<linearGradient id="SVGID_00000082326190246748780200000008870241607860969125_" gradientUnits="userSpaceOnUse" x1="-88.8723" y1="1088.8723" x2="1096.9587" y2="-96.9587">
	<stop  offset="0" style="stop-color:#655FF6"/>
	<stop  offset="0.1684" style="stop-color:#6564F6"/>
	<stop  offset="0.3729" style="stop-color:#6773F7"/>
	<stop  offset="0.5" style="stop-color:#6880F7"/>
	<stop  offset="0.6459" style="stop-color:#6E82F7"/>
	<stop  offset="0.8404" style="stop-color:#7F87F7"/>
	<stop  offset="1" style="stop-color:#928DF7"/>
</linearGradient>
<path style="fill:url(#SVGID_00000082326190246748780200000008870241607860969125_);" d="M775,1000H225C101.2,1000,0,898.8,0,775
	V225C0,101.2,101.2,0,225,0h550c123.8,0,225,101.2,225,225v550C1000,898.8,898.8,1000,775,1000z"/>
<path class="st2" d="M793.1,554.3c-8.3-2.2-13.5-10.5-11.7-18.8c37.4-171.6-67-344.5-239-390.4C365.5,97.9,183,202.7,135.3,378.7
	c0,0.1,0,0.1-0.1,0.3c0,0.1-0.1,0.4-0.1,0.5c-29.1,109.1-9.6,223.5,55.2,318c45.2,65.8,110.3,116.2,185.4,143.5
	C585.4,917.4,811.3,803,878,598.3c3.5-10.6-2.8-22-13.6-24.9L793.1,554.3z M444.6,720.6c-64.4-17.2-118.2-58.3-151.5-115.9
	c-33.3-57.5-42.2-124.3-25-188.4C296.6,311.4,405.2,249,510.6,277.2c100,26.7,161.7,125.5,143.8,225.3c-1.7,9.4,3.9,18.5,13.2,21
	l67.2,17.9c8.5,2.3,13.3,11.3,10.5,19.6C703.1,683.6,571.9,754.6,444.6,720.6z"/>
</svg>
