<?xml version="1.0" encoding="utf-8"?>
<!-- Generator: Adobe Illustrator 25.4.1, SVG Export Plug-In . SVG Version: 6.00 Build 0)  -->
<svg version="1.1" id="图层_1" xmlns="http://www.w3.org/2000/svg" xmlns:xlink="http://www.w3.org/1999/xlink" x="0px" y="0px"
	 viewBox="0 0 1000 1000" style="enable-background:new 0 0 1000 1000;" xml:space="preserve">
<style type="text/css">
	.st0{fill:#0090FE;}
	.st1{fill:#FFFFFF;}
</style>
<path class="st0" d="M775,1000H225C101.2,1000,0,898.8,0,775V225C0,101.2,101.2,0,225,0h550c123.8,0,225,101.2,225,225v550
	C1000,898.8,898.8,1000,775,1000z"/>
<path class="st1" d="M275.3,518.9c76.3-16.4,65.9-107.6,63.6-127.5c-3.7-30.7-39.9-84.5-89-80.2c-61.8,5.5-70.8,94.8-70.8,94.8
	C170.8,447.2,199.2,535.3,275.3,518.9z M356.4,677.6c-2.2,6.4-7.2,22.8-2.9,37.1c8.5,32,36.3,33.5,36.3,33.5h40v-97.7H387
	C367.7,656.2,358.5,671.1,356.4,677.6L356.4,677.6z M417,365.9c42.2,0,76.2-48.5,76.2-108.5c0-59.9-34.1-108.4-76.2-108.4
	c-42.1,0-76.2,48.5-76.2,108.4C340.7,317.4,374.9,365.9,417,365.9z M598.6,373.1c56.3,7.3,92.6-52.8,99.8-98.4
	c7.3-45.5-29-98.4-68.9-107.5c-40-9.2-89.9,54.9-94.4,96.6C529.6,314.9,542.3,365.9,598.6,373.1z M736.6,641
	c0,0-87.2-67.4-138.1-140.3c-69-107.5-167-63.7-199.8-9.1c-32.6,54.7-79.2,89.6-90.7,98.4c-7.3,9-105.3,61.9-83.6,158.5
	c21.7,96.5,98.1,94.7,98.1,94.7s56.3,5.5,121.6-9.1c65.3-14.5,121.6,3.6,121.6,3.6s152.6,51.1,194.4-47.3
	C801.9,692,736.6,641,736.6,641L736.6,641z M475.5,787.4h-99.2c-42.8-8.5-59.9-37.8-62.1-42.8c-2.1-5.1-14.3-28.6-7.8-68.5
	c18.5-59.9,71.3-64.2,71.3-64.2h52.8V547l45,0.7L475.5,787.4L475.5,787.4z M660.3,786.7H546.1c-44.3-11.4-46.3-42.8-46.3-42.8V617.6
	l46.3-0.8v113.5c2.8,12.1,17.9,14.3,17.9,14.3h47v-127h49.3V786.7L660.3,786.7z M821.9,449.6c0-21.8-18.1-87.5-85.3-87.5
	c-67.3,0-76.3,62-76.3,105.8c0,41.8,3.5,100.2,87.1,98.3C831.1,564.4,821.9,471.6,821.9,449.6L821.9,449.6z"/>
</svg>
