<?xml version="1.0" encoding="utf-8"?>
<!-- Generator: Adobe Illustrator 25.4.1, SVG Export Plug-In . SVG Version: 6.00 Build 0)  -->
<svg version="1.1" xmlns="http://www.w3.org/2000/svg" xmlns:xlink="http://www.w3.org/1999/xlink" x="0px" y="0px"
	 viewBox="0 0 1000 1000" style="enable-background:new 0 0 1000 1000;" xml:space="preserve">
<style type="text/css">
	.st0{fill:#FFFFFF;}
	.st1{fill:url(#路径_00000056405488681926081500000007327531921502982272_);}
	.st2{fill:url(#路径_00000027589078596902598830000011742626171162148017_);}
</style>
<g id="图层_2">
	<path class="st0" d="M775,1000H225C101.2,1000,0,898.8,0,775V225C0,101.2,101.2,0,225,0h550c123.8,0,225,101.2,225,225v550
		C1000,898.8,898.8,1000,775,1000z"/>
</g>
<g id="图层_1">
	<g id="页面-1">
		<g id="首页1" transform="translate(-101.000000, -20.000000)">
			<g id="top">
				<g id="logo" transform="translate(101.000000, 20.000000)">
					<g id="编组">
						<g>
							
								<linearGradient id="路径_00000041296753979779670380000013077000875626439049_" gradientUnits="userSpaceOnUse" x1="-359.5253" y1="-18.4963" x2="-387.803" y2="29.6878" gradientTransform="matrix(14.736 0 0 14.4971 6324.0239 571.0789)">
								<stop  offset="0.3498" style="stop-color:#FF527A"/>
								<stop  offset="0.5237" style="stop-color:#FF6A84"/>
								<stop  offset="0.6892" style="stop-color:#FF8590"/>
								<stop  offset="0.7883" style="stop-color:#FF909D"/>
								<stop  offset="0.8697" style="stop-color:#FF9CAB"/>
							</linearGradient>
							<path id="路径" style="fill:url(#路径_00000041296753979779670380000013077000875626439049_);" d="M908.4,519.4
								c-11.4,71.8-40.7,132.2-83.3,178c-62.9,68.7-149.4,107.4-267.6,118.2c37.5,19.7,86.5,30.5,147.5,30.5c3.8,0,7.6,0,11.4,0
								l62.9,52.8c10.2,8.9,26.1,3.8,29.9-8.9l17.8-62.9c82-31.2,120.8-96.6,120.8-182.5C947.2,595.1,934.4,552.5,908.4,519.4z"/>
							
								<linearGradient id="路径_00000072238079790574930090000000539510934224392617_" gradientUnits="userSpaceOnUse" x1="-435.2372" y1="-34.6136" x2="-423.2174" y2="-14.6485" gradientTransform="matrix(30.984 0 0 29.7131 13762.7754 1179.1866)">
								<stop  offset="0" style="stop-color:#008AFF"/>
								<stop  offset="0.7357" style="stop-color:#1AC7FF"/>
								<stop  offset="1" style="stop-color:#3FDBFF"/>
							</linearGradient>
							
								<path id="路径_00000137124307951094408510000000973246352858248083_" style="fill:url(#路径_00000072238079790574930090000000539510934224392617_);" d="
								M462.1,103c-279.7,0-410,147.5-410,342c0,138,65.5,252.4,204.1,307.1l35,122.1c4.5,15.3,23.5,21,35.6,10.8l117-97.9
								c6.4,0,12.7,0,19.1,0c267,0,410-142.4,410-342C872.1,250.5,741.8,103,462.1,103z"/>
							<g id="路径_00000069383619890231393340000002270876751216654254_" transform="translate(6.480000, 5.280000)">
								<path class="st0" d="M303,243.3L303,243.3c-19.1,0-34.3,15.3-34.3,34.3S284,312,303,312l0,0c19.1,0,34.3-15.3,34.3-34.3
									S322.1,243.3,303,243.3z"/>
								<polygon class="st0" points="542.7,500.8 634.9,500.8 634.9,463.3 542.7,463.3 542.7,433.4 495,433.4 495,463.3 
									402.2,463.3 402.2,500.8 495,500.8 495,546.6 388.9,546.6 388.9,584.1 495,584.1 495,651.5 542.7,651.5 542.7,584.1 
									648.9,584.1 648.9,546.6 542.7,546.6 								"/>
								<polygon class="st0" points="217.8,413.1 279.5,413.1 279.5,584.1 327.2,584.1 327.2,413.1 327.2,380 327.2,375.6 
									217.8,375.6 								"/>
								<path class="st0" d="M583.4,375.6L547.8,340l61-61v-35H418.1v37.5h129.7l-94.1,94.1h-78.8v37.5h73.8
									c16.5,0,32.4-6.4,43.9-18.4l26.1-26.1l26.1,26.1c11.4,11.4,27.3,18.4,43.9,18.4h73.8v-37.5H583.4L583.4,375.6z"/>
							</g>
						</g>
					</g>
				</g>
			</g>
		</g>
	</g>
</g>
</svg>
