<?xml version="1.0" encoding="utf-8"?>
<!-- Generator: Adobe Illustrator 25.4.1, SVG Export Plug-In . SVG Version: 6.00 Build 0)  -->
<svg version="1.1" id="图层_1" xmlns="http://www.w3.org/2000/svg" xmlns:xlink="http://www.w3.org/1999/xlink" x="0px" y="0px"
	 viewBox="0 0 1000 1000" style="enable-background:new 0 0 1000 1000;" xml:space="preserve">
<style type="text/css">
	.st0{fill:url(#SVGID_1_);}
	.st1{opacity:0.3;fill:#FFFFFF;}
	.st2{fill:#FFFFFF;}
</style>
<g>
	<linearGradient id="SVGID_1_" gradientUnits="userSpaceOnUse" x1="500" y1="1000" x2="500" y2="-9.094947e-13">
		<stop  offset="0" style="stop-color:#FB3475"/>
		<stop  offset="1" style="stop-color:#FF6DA0"/>
	</linearGradient>
	<path class="st0" d="M775,1000H225C101.2,1000,0,898.8,0,775V225C0,101.2,101.2,0,225,0h550c123.8,0,225,101.2,225,225v550
		C1000,898.8,898.8,1000,775,1000z"/>
</g>
<path class="st1" d="M419.9,427.3l-158,30.3l13.5,59.3l156.4-30.3C431.8,486.6,419.9,427.3,419.9,427.3z M505,584.6
	c-38.6,82.8-73.2,20.3-73.2,20.3l-25.9,16.7c0,0,50.9,69.7,99.5,16.7c57.3,52.9,101.1-17.1,101.1-17.1L583.1,606
	C583.1,605.6,542.1,665,505,584.6L505,584.6z M583.1,486.6l156.8,30.3l13.1-59.3l-157.6-30.3L583.1,486.6L583.1,486.6z M894.4,370.2
	c-2.5-110.5-98.9-131.7-98.9-131.7s-75.2-0.4-172.8-1.2l71-68.5c0,0,11.2-14.1-7.9-29.9c-19.1-15.8-20.4-8.7-27-4.6
	c-5.8,4.2-91,87.6-105.9,102.6c-38.6,0-78.9-0.4-118-0.4h13.7c0,0-101.8-100.5-108.4-105.1c-6.6-4.6-7.5-11.2-27,4.6
	c-19.1,15.8-7.9,29.9-7.9,29.9l72.7,70.6c-78.9,0-147,0.4-178.6,1.7c-102.2,29.5-94.3,132.1-94.3,132.1s1.2,220.1,0,331.4
	c11.2,111.3,96.8,129.2,96.8,129.2s34.1,0.8,59.4,0.8c2.5,7.1,4.6,41.9,43.6,41.9c38.6,0,43.6-41.9,43.6-41.9s284.5-1.2,308.2-1.2
	c1.2,12,7.1,44,46.1,43.6c38.6-0.8,41.5-46.1,41.5-46.1s13.3-1.2,52.7,0c92.2-17,97.6-125,97.6-125S893.2,480.7,894.4,370.2
	L894.4,370.2z M815.1,722.4c0,17.4-13.7,31.6-30.7,31.6H223.7c-17,0-30.7-14.1-30.7-31.6V350.7c0-17.4,13.7-31.6,30.7-31.6h560.7
	c17,0,30.7,14.1,30.7,31.6L815.1,722.4L815.1,722.4z"/>
<path class="st2" d="M732.7,429.7c2.2,0.4,19.7-3.5,20.5-2.2c1.1,1.7,8.9,57.9,6.9,58.3c-2,0.4-16.6,3.7-16.6,3.7
	C742.4,481.8,732.9,434.5,732.7,429.7 M760.7,424.3l7.6,60.5c3.9-0.2,19.7-1.3,21.2-1.5c-2.2-22.9-6.1-59-6.1-59
	C775.9,422.8,768.1,422.8,760.7,424.3 M745.6,508.3c0,0,34.5-8.8,46.9-4.5c6.3,22.9,17.9,151.4,19,156.6c-7.8,0.9-33.5,3.2-35.6,3.7
	C774.3,654.5,745.6,514.4,745.6,508.3 M873.2,431.1c2,0.6,20.3-1.9,20.5-0.6c0.4,4.5,2.2,58.5,0.2,58.7c-2,0.2-16.6,1.5-16.6,1.5
	C876.9,483.3,872.8,436.2,873.2,431.1 M901.3,429.7l1.5,59.8c3.9,0,19.6,0.9,21.2,0.7c-0.4-22.9,0-59,0-59
	C916.6,429.8,908.9,429.3,901.3,429.7 M877.3,509.9c0,0,35.2-4.7,47.1,0.9c2.6,26.8,2.2,151.8,2.6,157c-8,0-33.5,0.4-35.6,0.7
	C891.1,658.9,876.7,516.1,877.3,509.9 M795.5,356.3c20.3,103.6,35.8,280.5,36.3,291.9c0,0,16,0.4,34.1,1.5
	c-10.6-111.6-23.7-289.8-23.5-295.6C838,349,795.5,356.3,795.5,356.3 M750.8,601.2c-3.9-29.1-107.8-62-166.3-51.4
	c0,0-7.3-64.1-10.1-126.1c-2.4-53.3-0.4-105.1,0.2-113.6c-3.9-2.8-46,17.3-68.7,25.7c0,0,27.2,115.1,46.9,353.9
	c0,0,31.5,3.4,85.5-7.1C692.3,672.2,756.2,639.6,750.8,601.2 M623.8,653.5l-9.1-65.7c2.2-1.1,58.3,19.7,64.3,23.5
	C678,615.4,623.8,653.5,623.8,653.5 M299.9,429.7c2.2,0.4,19.7-3.5,20.5-2.2c1.1,1.7,8.9,57.9,6.9,58.3c-2,0.4-16.6,3.7-16.6,3.7
	C309.5,481.8,300.1,434.5,299.9,429.7 M327.8,424.3l7.6,60.5c3.9-0.2,19.7-1.3,21.2-1.5c-2.4-22.9-6.1-59-6.1-59
	C343.1,422.8,335.3,422.8,327.8,424.3 M312.7,508.3c0,0,34.5-8.8,46.9-4.5c6.3,22.9,17.9,151.4,19,156.6c-7.8,0.9-33.5,3.2-35.6,3.7
	C341.4,654.5,312.7,514.4,312.7,508.3 M440.3,431.1c2,0.6,20.3-1.9,20.5-0.6c0.4,4.5,2.2,58.5,0.2,58.7c-2,0.2-16.6,1.5-16.6,1.5
	C444,483.3,440.1,436.2,440.3,431.1 M468.4,429.7l1.5,59.8c3.9,0,19.6,0.9,21.2,0.7c-0.4-22.9,0-59,0-59
	C483.7,429.8,476.1,429.5,468.4,429.7 M444.4,509.9c0,0,35.2-4.7,47.1,0.9c2.6,26.8,2.2,151.8,2.6,157c-8,0-33.5,0.4-35.6,0.7
	C458.4,658.9,443.8,516.1,444.4,509.9 M362.6,356.3c20.3,103.6,35.8,280.5,36.3,291.9c0,0,16,0.4,34.1,1.5
	c-10.6-111.6-23.7-289.8-23.5-295.8C405.1,349,362.6,356.3,362.6,356.3 M317.9,601.2c-3.9-29.1-107.8-62-166.3-51.4
	c0,0-7.3-64.1-10.1-126.1c-2.4-53.3-0.4-105.1,0.2-113.6c-3.9-2.6-46,17.3-68.7,25.7c0,0,27.2,115.1,46.9,353.9
	c0,0,31.5,3.4,85.5-7.1C259.4,672.2,323.3,639.6,317.9,601.2 M190.9,653.5l-9.1-65.7c2.2-1.1,58.3,19.7,64.3,23.5
	C245.1,615.4,190.9,653.5,190.9,653.5"/>
</svg>
