<svg xmlns="http://www.w3.org/2000/svg" width="1000" height="1000" viewBox="0 0 1000 1000">
  <defs>
    <style>
      .cls-1 {
        fill: #ba160d;
      }

      .cls-2 {
        fill: #fbebeb;
        fill-rule: evenodd;
      }
    </style>
  </defs>
  <rect id="x2" data-name="xe2" class="cls-1" width="1000" height="1000" rx="225" ry="225"/>
  <path id="ed1" data-name="tr1" class="cls-2" d="M705,200c54.034-35.952,141.892-20.693,159,43,8.3,78.992-56.872,111.493-98,127s-139.2,28.526-151,31c-0.676-.308,0,289,0,289s60.936-11.439,70-15,34.046-7.216,35-39-1-123-1-123l-64,13-1-78,167-31s0.053,206.806,1,229c0.02,34.247-14.75,103.414-98,124s-208,40-208,40l1-489s214.586-38.12,235-52C775.2,263.465,809.775,194.9,705,200Z"/>
  <path id="uy1" data-name="tr1" class="cls-2" d="M282.61,196.676C215.668,157.019,128,187.258,124.281,245.838c-5.068,63.323,35.9,83.279,39.081,87.286s2.848,12.279,2.962,21.818c-0.249,12.23-.957,271.7-0.957,301.243,0,14.854,14.174,70.75,57.118,96.316C248.267,767.344,364,788.51,471,809.689c-0.02-101.914,0-102.336,0-102.336s-140.664-27.449-162.337-31.1-46.558-7.478-43.089-65.215,0-233.767,0-233.767L470,418.4l-1-97.319S318.76,292.522,247.537,270.92C179.305,243.327,216.3,182.7,282.61,196.676Z"/>
</svg>
