<?xml version="1.0" encoding="utf-8"?>
<!-- Generator: Adobe Illustrator 25.4.1, SVG Export Plug-In . SVG Version: 6.00 Build 0)  -->
<svg version="1.1" id="图层_1" xmlns="http://www.w3.org/2000/svg" xmlns:xlink="http://www.w3.org/1999/xlink" x="0px" y="0px"
	 viewBox="0 0 1000 1000" style="enable-background:new 0 0 1000 1000;" xml:space="preserve">
<style type="text/css">
	.st0{fill:#4591FF;}
</style>
<path class="st0" d="M993.2,459.5c-13.8,6.9-31,10.3-46.6,8.6h-5.2c-36.2-3.4-69-13.8-100-32.8L498.3,207.7L199.9,431.9l106.9,69
	c15.5,8.6,32.8,12.1,50,8.6l265.6-55.2l-286.3-17.2l220.7-165.6l-20.7,67.3c0,0,203.5,136.2,210.4,139.7
	c19,12.1,41.4,20.7,62.1,27.6v308.7H191.3V644c-41.4-41.4-89.7-74.2-144.9-94.9c-12.1-5.2-25.9-8.6-37.9-8.6H6.8
	c13.8-6.9,31-10.3,46.6-8.6h5.2c34.5,3.4,69,13.8,98.3,32.8l32.8,22.4l308.7,205.2l300.1-225.9l-106.9-69
	c-15.5-8.6-32.8-12.1-50-8.6L375.8,544l286.3,17.2L441.4,726.8l20.7-67.3L260.3,525c-22.4-13.8-44.8-25.9-70.7-32.8v-307H807V356
	c41.4,41.4,89.7,74.2,144.9,94.9C965.6,456,977.7,459.5,993.2,459.5L993.2,459.5z"/>
</svg>
