<svg xmlns="http://www.w3.org/2000/svg" width="500" height="500" viewBox="0 0 500 500">
  <defs>
    <style>
      .cls-1 {
        fill: #ff0080;
        fill-rule: evenodd;
      }
    </style>
  </defs>
  <path id="ChongDong" class="cls-1" d="M199.581,198.434c-55.836-48.424-162.312,45.744-130.9,101.609C80.789,229.621,169.863,184.482,199.581,198.434Zm32.537-18.305c-24.143-69.855-163.438-41.54-164.165,22.548C113.647,147.742,213.357,153.187,232.118,180.129Zm37.33,0.416C283.467,107.977,148.677,62.851,116,117.989,183.043,93.261,266.672,147.832,269.448,180.545Zm32.121,19.025c48.425-55.836-45.744-162.311-101.609-130.9C270.382,80.778,315.521,169.852,301.569,199.57Zm18.305,32.537c69.855-24.143,41.541-163.438-22.547-164.164C352.262,113.637,346.816,213.346,319.874,232.107Zm-0.415,37.33c72.567,14.019,117.694-120.771,62.555-153.444C406.743,183.033,352.171,266.661,319.459,269.437Zm-19.025,32.122c55.835,48.424,162.311-45.744,130.9-101.609C419.226,270.372,330.152,315.511,300.434,301.559Zm-32.537,18.3c24.143,69.855,163.438,41.54,164.164-22.548C386.367,352.251,286.657,346.806,267.9,319.864Zm-37.331-.416C216.547,392.016,351.338,437.142,384.011,382,316.971,406.732,233.343,352.161,230.566,319.448Zm-32.121-19.025c-48.424,55.836,45.744,162.312,101.609,130.9C229.632,419.215,184.493,330.141,198.445,300.423ZM180.14,267.886c-69.855,24.143-41.54,163.438,22.547,164.165C147.752,386.357,153.2,286.647,180.14,267.886Zm0.416-37.33C107.988,216.537,62.862,351.327,118,384,93.272,316.96,147.843,233.332,180.556,230.556Z"/>
</svg>
