<?xml version="1.0" encoding="utf-8"?>
<!-- Generator: Adobe Illustrator 25.4.1, SVG Export Plug-In . SVG Version: 6.00 Build 0)  -->
<svg version="1.1" id="_x31_" xmlns="http://www.w3.org/2000/svg" xmlns:xlink="http://www.w3.org/1999/xlink" x="0px" y="0px"
	 viewBox="0 0 1000 1000" style="enable-background:new 0 0 1000 1000;" xml:space="preserve">
<style type="text/css">
	.st0{fill:#FBAD41;}
	.st1{fill:#F6821F;}
</style>
<path class="st0" d="M798.1,470.4c-3.3,0-6.6,0.1-9.8,0.2c-0.5,0-1,0.2-1.5,0.4c-1.8,0.6-3.1,2-3.5,3.8l-14,48.7
	c-6,21-3.8,40.3,6.3,54.5c9.3,13.1,24.7,20.9,43.4,21.8l75.7,4.6c2.3,0.1,4.2,1.2,5.4,3c1.3,1.9,1.5,4.3,0.8,6.5
	c-1.2,3.6-4.5,6.1-8.2,6.4l-78.6,4.6c-42.7,2-88.7,36.8-104.8,79.4l-5.7,15c-0.8,2.2,0.2,4.6,2.4,5.4c0.4,0.2,0.9,0.3,1.3,0.3h270.8
	c3.2,0,6.1-2.1,7-5.3c4.8-17.3,7.2-35.2,7.2-53.1c0-108.3-86.8-196.1-194-196.1"/>
<path class="st1" d="M679.9,718.7l5-17.6c6-21,3.8-40.3-6.3-54.5c-9.3-13.1-24.7-20.9-43.4-21.8l-355-4.6c-2.2,0-4.3-1.2-5.6-3
	c-1.3-1.9-1.6-4.3-0.8-6.5c1.3-3.6,4.5-6.1,8.3-6.4l358.3-4.6c42.5-2,88.5-36.8,104.6-79.4l20.4-54c0.8-2.3,1-4.8,0.6-7.2
	C742.8,353.9,649.6,275,538.3,275c-102.6,0-189.7,66.9-221,160c-21-16-47.4-23.4-73.7-20.6c-49.2,5-88.8,45-93.7,94.8
	c-1.3,12.4-0.4,25,2.7,37.1C72.3,548.6,7.8,615.2,7.8,697c0,7.4,0.5,14.7,1.6,21.8c0.4,3.5,3.4,6,6.9,6h655.6
	c3.8-0.1,7.1-2.6,8.1-6.3"/>
</svg>
