<svg id="1" data-name="e1" xmlns="http://www.w3.org/2000/svg" viewBox="0 0 1000 1000">
    <defs>
        <style>
            .cls-1{fill:#231916;}.cls-2{fill:#c92027;}
        </style>
    </defs>
<path class="cls-1" d="M520.85,410.72c14-1.54,35.44-3.1,65-3.1,49.29,0,89.14,8.7,113.82,27,22.18,17.06,36.93,44.68,32.85,84.71-3.78,37.24-22.85,63.32-50.67,79.44-25.44,15.21-57.47,21.72-105.68,21.72-28.41,0-55.52-1.56-76.13-4.65l20.85-205.12Zm40.74,164.35c4.73.94,11,1.87,23.32,1.87,49.3,0,84.07-24.59,87.58-59.14,5.07-49.95-25.78-67.42-77.74-67.12-6.72,0-16.08,0-21,.92L561.58,575.08h0ZM774,418.55C974.46,380.66,991.76,448.74,985.57,509L973.88,620.49H910.27l10.65-101.67c2.3-22.39,16.63-66.19-52.59-64.54-23.93.58-35.83,3.86-35.83,3.86s-2.08,27.06-4.6,47.06L815.81,620.49H753.42L765.8,506.86"/>
<path class="cls-2" d="M228.81,613.54c-11.76,4.12-36.15,7-70.24,7-98,0-150.88-46.63-144.64-108.25,7.5-73.44,85.85-114.76,171.65-114.76,33.24,0,52.79,2.72,71.14,7.26l-5.9,49.48c-12.19-4.17-40.76-8-63.89-8-50.51,0-93.37,15.25-98.29,63.45-4.38,43.1,25.72,63.71,82.5,63.71,19.77,0,48.92-2.87,62.39-7l-4.74,47.14,0,0Z"/>
<path class="cls-1" d="M272.6,563.49c18.33,6.43,56.53,12.84,87.43,12.84,33.29,0,51.82-8.87,53.31-22.62,1.35-12.55-12.28-14.24-49.88-22.82-51.95-12.25-85.1-31.21-81.86-61.49,3.79-35.18,52.74-61.78,127.86-61.78,36.64,0,72.14,2.48,90.54,8.28l-6.33,44.35c-11.94-4-57.65-9.54-88.57-9.54-31.35,0-47.58,9.48-48.71,19.88C355,483.75,371.27,484.35,412,494.78c55.15,13.45,79.26,32.39,76.11,61.76-3.7,34.59-47.74,64-135.69,64-36.61,0-68.18-6.43-85.58-12.85l5.75-44.15Z"/>
</svg>