<?xml version="1.0" encoding="utf-8"?>
<!-- Generator: Adobe Illustrator 25.4.1, SVG Export Plug-In . SVG Version: 6.00 Build 0)  -->
<svg version="1.1" id="Layer_1" xmlns="http://www.w3.org/2000/svg" xmlns:xlink="http://www.w3.org/1999/xlink" x="0px" y="0px"
	 viewBox="0 0 1000 1000" style="enable-background:new 0 0 1000 1000;" xml:space="preserve">
<g>
	<polygon points="594.2,198.7 213.8,388.9 402.5,738 785.9,550.1 754.7,490.3 453.1,641.9 403.6,546.1 578.4,460.8 547.2,400.1 
		370.9,485.5 327,400.1 625.4,255.7 	"/>
	<path d="M928.8,510.4c0,0-11.2,27.7-28.3,58.1c-20.3,36.3-35.1,57.3-35.1,57.3s14.8,158.5-131.8,236
		C585.2,940.1,400,805.1,400,805.1S260.4,703.8,198.9,574.5s-51.1-236.2-51.1-236.2s1.6-159.6,131.7-212.3
		c130.1-52.7,247.4,11.2,247.4,11.2l50.5,24.1c0,0,38.8,0.6,78.7,4.6c33.1,2.4,72.6,13.8,72.6,13.8S654.6,91.7,508.5,46.2
		c-146-45.5-235.4-12-235.4-12S177.4,59,114.3,147.6c-63,88.6-58.7,218.6-58.7,218.6s0.4,123.7,53.9,242.6
		c41.2,91.5,103.3,150.4,137.2,187.9c33.9,37.5,91,97.8,224.2,150.4c0,0,217.8,85.4,356.7-29.5C959,806.3,945.4,657.1,942.6,614.4
		C939.8,571.7,928.8,510.4,928.8,510.4z"/>
	<path d="M750,372.5c-51.9-86.2-96.5-116.9-96.5-116.9s105.3,17.9,160.8,95.3c50.7,75.8,2,157.2,2,157.2S801.8,458.7,750,372.5z"/>
	<path d="M159.6,395.8c3.8,31.3,10.3,63.5,15.3,81.7l29-45.8l-9.2-19.9l8.6-28.6L597.8,187l31.5,56c0,0,116.4,2.5,192.4,94.1
		c31.4,37.9,33.8,88.3,23.9,128.7c-14,57.3-50.9,99.4-50.9,99.4s-64.6,92.8-220.2,147.2C419,766.8,332,727.7,332,727.7
		s25.2,25,38.3,36.3c15.8,13.6,15.5,11.9,48.1,38.2c0,0,192.6,18.5,332-83.9c136.9-100.5,172.4-238.8,172.4-238.8
		s26.9-122.7-59.3-211.9c-110.1-107.7-283.7-93.4-283.7-93.4s-117.3,5.4-219,50.9c-129.9,54.5-187.1,147-193.3,156.2
		C161.4,390.6,159.6,395.8,159.6,395.8z"/>
	<polygon points="623.5,286.5 347.5,422.5 339.1,405.7 626.5,266.1 	"/>
	<polygon points="574.4,490.3 423.4,568.5 413.9,550.1 578.2,470 	"/>
	<path d="M784.9,560.5c0,0-7.6,9.8-24.4,27.5c-16.9,17.8-28.2,27.2-28.2,27.2L506.4,723.4l-74.1,10.3L784.9,560.5z"/>
	<path d="M89.5,595.2c0,0,16.4,43.1,40.3,79.8c31.1,49.5,64.6,83,64.6,83s-44.7-15.2-74.2-55.5C82.7,659.8,89.5,595.2,89.5,595.2z"
		/>
	<polygon points="206.9,395.8 203.1,412.6 370.9,728.8 389.5,732.2 	"/>
</g>
</svg>
