<?xml version="1.0" encoding="utf-8"?>
<!-- Generator: Adobe Illustrator 25.4.1, SVG Export Plug-In . SVG Version: 6.00 Build 0)  -->
<svg version="1.1" id="图层_1" xmlns="http://www.w3.org/2000/svg" xmlns:xlink="http://www.w3.org/1999/xlink" x="0px" y="0px"
	 viewBox="0 0 1000 1000" style="enable-background:new 0 0 1000 1000;" xml:space="preserve">
<style type="text/css">
	.st0{fill:#FFC712;}
	.st1{fill:#1D1D1F;}
</style>
<path id="_x31_" class="st0" d="M775,1000H225C100.7,1000,0,899.3,0,775V225C0,100.7,100.7,0,225,0h550c124.3,0,225,100.7,225,225
	v550C1000,899.3,899.3,1000,775,1000z"/>
<path class="st1" d="M672.9,398.3V743l55.5-47.8V505.1l34.2-29.5C762.6,475.6,672.9,398.3,672.9,398.3z M237.4,695.2l55.5,47.8
	V398.2L237.4,446V695.2z M331.4,224.4v551.1l152.3,131.2l152.3-131.2V366.3l-95.3-80.8v493.8l-56.9,51.9l-56.9-51.9v-562l56.9-52
	l152.3,130.8v-71.8L483.6,93.3L331.4,224.4z"/>
</svg>
