<?xml version="1.0" encoding="utf-8"?>
<!-- Generator: Adobe Illustrator 25.4.1, SVG Export Plug-In . SVG Version: 6.00 Build 0)  -->
<svg version="1.1" id="图层_1" xmlns="http://www.w3.org/2000/svg" xmlns:xlink="http://www.w3.org/1999/xlink" x="0px" y="0px"
	 viewBox="0 0 1000 1000" style="enable-background:new 0 0 1000 1000;" xml:space="preserve">
<style type="text/css">
	.st0{fill:#C71D23;}
</style>
<path class="st0" d="M500,983.4C233,983.4,16.6,767,16.6,500S233,16.6,500,16.6S983.4,233,983.4,500S767,983.4,500,983.4z
	 M744.7,446.3H470.2c-13.2,0-23.9,10.7-23.9,23.9l0,59.7c0,13.2,10.7,23.9,23.9,23.9h167.1c13.2,0,23.9,10.7,23.9,23.9v11.9
	c0,39.6-32.1,71.6-71.6,71.6H362.7c-13.2,0-23.9-10.7-23.9-23.9V410.5c0-39.5,32.1-71.6,71.6-71.6h334.2c13.2,0,23.9-10.7,23.9-23.9
	l0.1-59.7c0-13.2-10.7-23.9-23.9-23.9H410.4c-98.9,0-179,80.2-179,179c0,0,0,0,0,0v334.2c0,13.2,10.7,23.9,23.9,23.9h352.1
	c89,0,161.1-72.1,161.1-161.1v0V470.1C768.5,457,757.8,446.3,744.7,446.3L744.7,446.3z"/>
</svg>
