<?xml version="1.0" encoding="utf-8"?>
<!-- Generator: Adobe Illustrator 25.4.1, SVG Export Plug-In . SVG Version: 6.00 Build 0)  -->
<svg version="1.1" id="图层_1" xmlns="http://www.w3.org/2000/svg" xmlns:xlink="http://www.w3.org/1999/xlink" x="0px" y="0px"
	 viewBox="0 0 1000 1000" style="enable-background:new 0 0 1000 1000;" xml:space="preserve">
<style type="text/css">
	.st0{fill:#4285F4;}
	.st1{fill:#34A853;}
	.st2{fill:#FBBC05;}
	.st3{fill:#EB4335;}
</style>
<path class="st0" d="M984.9,511c0-40.7-3.3-70.4-10.4-101.2H509.9v183.6h272.7c-5.5,45.6-35.2,114.4-101.2,160.5l-0.9,6.1
	l146.9,113.8l10.2,1C931,788.6,984.9,661.6,984.9,511"/>
<path class="st1" d="M509.9,994.8c133.6,0,245.7-44,327.7-119.8L681.4,754c-41.8,29.1-97.9,49.5-171.5,49.5
	c-130.8,0-241.9-86.3-281.5-205.6l-5.8,0.5L69.9,716.5l-2,5.6C149.3,883.7,316.4,994.8,509.9,994.8"/>
<path class="st2" d="M228.4,597.9c-10.4-30.8-16.5-63.8-16.5-97.9c0-34.1,6-67.1,15.9-97.9l-0.3-6.6L72.9,275.5l-5.1,2.4
	C34.4,345,15.1,420.3,15.1,500s19.2,155,52.8,222.1L228.4,597.9"/>
<path class="st3" d="M509.9,196.5c92.9,0,155.6,40.1,191.3,73.7l139.6-136.3C755.1,54.1,643.5,5.2,509.9,5.2
	c-193.5,0-360.6,111.1-442,272.7l160,124.2C268,282.8,379.1,196.5,509.9,196.5"/>
</svg>
