<svg xmlns="http://www.w3.org/2000/svg" width="1000" height="1000" viewBox="0 0 1000 1000">
  <defs>
    <style>
      .cls-1 {
        fill: #292929;
      }

      .cls-2 {
        fill: #48a7a2;
        fill-rule: evenodd;
      }
    </style>
  </defs>
  <rect id="矩形_3" data-name="矩形 3" class="cls-1" x="144" y="108" width="109" height="109"/>
  <rect id="矩形_3_拷贝" data-name="矩形 3 拷贝" class="cls-1" x="144" y="301" width="109" height="601"/>
  <rect id="矩形_3_拷贝_2" data-name="矩形 3 拷贝 2" class="cls-1" x="446" y="108" width="109" height="109"/>
  <rect id="矩形_3_拷贝_2-2" data-name="矩形 3 拷贝 2" class="cls-1" x="446" y="301" width="109" height="601"/>
  <rect id="矩形_3_拷贝_3" data-name="矩形 3 拷贝 3" class="cls-1" x="765" y="108" width="109" height="109"/>
  <rect id="矩形_3_拷贝_3-2" data-name="矩形 3 拷贝 3" class="cls-1" x="765" y="301" width="109" height="601"/>
  <path id="C" class="cls-2" d="M319.443,791.336q-48.779,0-78-36.431t-29.227-99.183q0-58.216,29.041-95.871T314.23,522.2q28.666,0,61.06,10.11V421.449q-30.533-9.061-67.017-9.065-93.822,0-155.255,67.807T91.586,652.236q0,112.259,60.874,181.108T311.252,902.2q28.29,0,64.038-10.807V780.877q-32.025,10.458-55.847,10.459h0Z"/>
  <path id="G" class="cls-2" d="M688.269,629.924v90.293h68.176q-2.426,75.653-75.912,75.651-45.942,0-66.967-32.945T592.533,659.905q0-75.3,18.616-108.944t63.1-33.642q26.111,0,41.1,10.285t32.4,32.6l139.735-41.486Q825.58,412.386,687.3,412.384q-123.3,0-187.362,61.881T435.874,655.722q0,118.534,64.308,182.5T682.467,902.2q105.4,0,166.087-51.77t60.682-142.412V629.924H688.269Z"/>
</svg>
