<?xml version="1.0" encoding="utf-8"?>
<!-- Generator: Adobe Illustrator 25.4.1, SVG Export Plug-In . SVG Version: 6.00 Build 0)  -->
<svg version="1.1" id="图层_1" xmlns="http://www.w3.org/2000/svg" xmlns:xlink="http://www.w3.org/1999/xlink" x="0px" y="0px"
	 viewBox="0 0 1000 1000" style="enable-background:new 0 0 1000 1000;" xml:space="preserve">
<style type="text/css">
	.st0{fill:#1681FF;}
	.st1{filter:url(#Adobe_OpacityMaskFilter);}
	.st2{fill:#FFFFFF;}
	.st3{mask:url(#bg-mask-0_00000183942842240664077630000013359934469698795189_);}
	.st4{filter:url(#Adobe_OpacityMaskFilter_00000005259899534402720680000016714020000983156135_);}
	.st5{mask:url(#mask-1_00000014621363640866499250000004691291971740542864_);}
	.st6{filter:url(#Adobe_OpacityMaskFilter_00000133525229084638469980000006310652010993646985_);}
	.st7{mask:url(#mask-1_00000013872243377611918390000015258742878787631012_);}
	.st8{fill-rule:evenodd;clip-rule:evenodd;fill:url(#路径_3_00000155144073094468260370000011939151267360094904_);}
	.st9{fill-rule:evenodd;clip-rule:evenodd;fill:url(#路径_2_00000167378878786883334220000006230050758637713028_);}
	.st10{fill-rule:evenodd;clip-rule:evenodd;fill:#1681FF;}
	.st11{fill-rule:evenodd;clip-rule:evenodd;fill:url(#路径_4_00000034770368986993602890000016772487889816237717_);}
</style>
<g>
	<path class="st0" d="M775,1000H225C101.25,1000,0,898.75,0,775V225C0,101.25,101.25,0,225,0h550c123.75,0,225,101.25,225,225v550
		C1000,898.75,898.75,1000,775,1000z"/>
</g>
<g transform="translate(0 0)  rotate(0 62.5 87.36523085624258)">
	<defs>
		<filter id="Adobe_OpacityMaskFilter" filterUnits="userSpaceOnUse" x="240.32" y="152.31" width="982.91" height="1548.69">
			<feColorMatrix  type="matrix" values="1 0 0 0 0  0 1 0 0 0  0 0 1 0 0  0 0 0 1 0"/>
		</filter>
	</defs>
	
		<mask maskUnits="userSpaceOnUse" x="240.32" y="152.31" width="982.91" height="1548.69" id="bg-mask-0_00000183942842240664077630000013359934469698795189_">
		<g class="st1">
			
				<rect id="path_0_00000044137126861515646770000017881069646185056668_" x="18.68" y="17.2" class="st2" width="1204.56" height="1683.78"/>
		</g>
	</mask>
	<g class="st3">
		<g transform="translate(25 0)  rotate(0 50 50)">
			<defs>
				<filter id="Adobe_OpacityMaskFilter_00000036935683019612642870000009992818548888096912_" filterUnits="userSpaceOnUse">
					<feColorMatrix  type="matrix" values="1 0 0 0 0  0 1 0 0 0  0 0 1 0 0  0 0 0 1 0"/>
				</filter>
			</defs>
			<mask maskUnits="userSpaceOnUse" id="mask-1_00000014621363640866499250000004691291971740542864_">
				<g style="filter:url(#Adobe_OpacityMaskFilter_00000036935683019612642870000009992818548888096912_);">
					<path id="path_1_00000018207450044162535470000016424751846810685603_" class="st2" d="M147.86,17.2h655.28
						c85.19,0,154.18,69,154.18,154.18v655.28c0,85.19-69,154.18-154.18,154.18H147.86c-85.19,0-154.18-69-154.18-154.18V171.38
						C-6.32,86.19,62.67,17.2,147.86,17.2z"/>
				</g>
			</mask>
			<g class="st5">
			</g>
			<defs>
				
					<filter id="Adobe_OpacityMaskFilter_00000150070007271812548480000000011244656863095719_" filterUnits="userSpaceOnUse" x="345.96" y="203.97" width="278.31" height="140.1">
					<feColorMatrix  type="matrix" values="1 0 0 0 0  0 1 0 0 0  0 0 1 0 0  0 0 0 1 0"/>
				</filter>
			</defs>
			
				<mask maskUnits="userSpaceOnUse" x="345.96" y="203.97" width="278.31" height="140.1" id="mask-1_00000013872243377611918390000015258742878787631012_">
				<g style="filter:url(#Adobe_OpacityMaskFilter_00000150070007271812548480000000011244656863095719_);">
					<path id="path_1_00000149348345079172153720000012803797160836771498_" class="st2" d="M147.86,17.2h655.28
						c85.19,0,154.18,69,154.18,154.18v655.28c0,85.19-69,154.18-154.18,154.18H147.86c-85.19,0-154.18-69-154.18-154.18V171.38
						C-6.32,86.19,62.67,17.2,147.86,17.2z"/>
				</g>
			</mask>
			<g class="st7">
				
					<linearGradient id="路径_3_00000181074841553005922970000003155344083214549393_" gradientUnits="userSpaceOnUse" x1="-453.084" y1="845.73" x2="-452.9876" y2="706.1672" gradientTransform="matrix(-28.8813 0 0 -14.5389 -12604.1035 15115.3652)">
					<stop  offset="0" style="stop-color:#FFFFFF"/>
					<stop  offset="1" style="stop-color:#FFFFFF"/>
				</linearGradient>
				
					<path id="路径_3" style="fill-rule:evenodd;clip-rule:evenodd;fill:url(#路径_3_00000181074841553005922970000003155344083214549393_);" d="
					M611.2,204.63c7.42-2.89,15.03,4.14,12.62,11.76l-35.17,115.16c-1.06,3.37-3.85,5.88-7.32,6.46
					c-12.33,1.93-44.81,6.07-96.17,6.07s-83.84-4.14-96.27-6.07c-3.47-0.58-6.26-3.08-7.23-6.46l-35.27-115.16
					c-2.31-7.61,5.2-14.65,12.72-11.76l66.88,26.02l59.17,19.66l59.07-19.66L611.2,204.63z"/>
			</g>
		</g>
		
			<linearGradient id="路径_2_00000006695195203470726600000011863318094553464968_" gradientUnits="userSpaceOnUse" x1="-452.0087" y1="1037.7421" x2="-451.9123" y2="1032.6412" gradientTransform="matrix(-101.9989 0 0 -132.0018 -45358.4844 137417.6562)">
			<stop  offset="0.25" style="stop-color:#FFFFFF"/>
			<stop  offset="1" style="stop-color:#FFFFFF;stop-opacity:0.2"/>
		</linearGradient>
		
			<path id="路径_2" style="fill-rule:evenodd;clip-rule:evenodd;fill:url(#路径_2_00000006695195203470726600000011863318094553464968_);" d="
			M258.72,526.2c243.61-150.62,395.19-97.33,460.04-32.47c64.76,64.95,98.39,125.95,155.44,499.75
			c57.05,373.8,166.33,519.21,213.83,545.13c123.06,51.94,273.39,157.07-110.14,162.28c-479.41,6.46-660.87-246.69-719.17-408.87
			c-58.3-162.28,38.83-454.36,58.3-597.07C332.53,580.64,284.64,534.87,258.72,526.2z"/>
		<path id="路径_5" class="st10" d="M466.77,605.02c-18.6,0-33.73-15.13-33.73-33.73c0-18.6,15.13-33.73,33.73-33.73
			s33.73,15.13,33.73,33.73C500.5,589.89,485.37,605.02,466.77,605.02z"/>
		
			<linearGradient id="路径_4_00000120555234472928183890000010814928679273016230_" gradientUnits="userSpaceOnUse" x1="-384.0957" y1="1023.5476" x2="-383.9994" y2="1005.3743" gradientTransform="matrix(-11.75 0 0 -10.1588 -4002.3601 10550.2871)">
			<stop  offset="0" style="stop-color:#FFFFFF"/>
			<stop  offset="1" style="stop-color:#99C9FF"/>
		</linearGradient>
		
			<path id="路径_4" style="fill-rule:evenodd;clip-rule:evenodd;fill:url(#路径_4_00000120555234472928183890000010814928679273016230_);" d="
			M566.89,231.42l-56.76,18.79l-56.47-18.69l48.38-74.78c3.85-5.88,12.33-5.88,16.19-0.1L566.89,231.42z"/>
	</g>
</g>
</svg>
