<svg xmlns="http://www.w3.org/2000/svg" width="1000" height="1000" viewBox="0 0 1000 1000">
  <defs>
    <style>
      .cls-1 {
        fill: #ff7812;
      }

      .cls-1, .cls-2 {
        fill-rule: evenodd;
      }

      .cls-2 {
        fill: none;
        stroke: #ff7812;
        stroke-width: 55px;
      }
    </style>
  </defs>
  <path id="_2" data-name="2" class="cls-1" d="M319.757,570.915L500,747,673.313,570.915H557.2V392.623H437.174V570.915H319.757Z"/>
  <path id="_1" data-name="1" class="cls-2" d="M815,436c27.287,6.721,130.583,83.164,120,222C921.79,808.22,788.31,839.923,748,841c-47,3.942-540.656-3.262-558-6S62.861,796.1,58,667,174.724,481.524,207,483c-7.129-29.172-11.722-107.561,59-167s134.168-45.458,175-32c12.811-17.19,103.889-155.194,256-85C843.857,264.815,818.5,397.471,815,436Z"/>
</svg>
