<svg xmlns="http://www.w3.org/2000/svg" width="1000" height="1000" viewBox="0 0 1000 1000">
  <defs>
    <style>
      .cls-1, .cls-3 {
        fill: #1b83ff;
      }

      .cls-2, .cls-4 {
        fill: #fff;
      }

      .cls-3, .cls-4 {
        fill-rule: evenodd;
      }

      .cls-4 {
        opacity: 0.78;
      }
    </style>
  </defs>
  <rect id="矩形_1" data-name="矩形 1" class="cls-1" width="1000" height="1000" rx="225" ry="225"/>
  <circle id="椭圆_1" data-name="椭圆 1" class="cls-2" cx="500" cy="500" r="388.25"/>
  <path id="_5" data-name="5" class="cls-3" d="M493.668,785.545q176.386-8.97,194.35-176.409-6.027-176.385-161.46-182.389-59.846,3.013-98.669,38.87l5.98-140.53H658.118V250.338H335.2L320.249,561.3l113.62,2.99q17.94-56.763,65.779-59.8,65.733,6.026,74.75,95.679-6.027,110.653-77.74,113.62-56.832-2.943-65.779-65.78H317.259q5.957,131.606,176.409,137.539h0Z"/>
  <path id="形状_1" data-name="形状 1" class="cls-4" d="M451.794,260.272l-102.927,1.3L331.93,548.206l97.715,2.606s23.58-73.343,97.715-49.509c0.226-1.089,6.144-60.588,6.515-61.235-30.939-10.313-89.835,10.4-115.956,48.206,1.381-152.985,6.514-173.282,6.514-173.282l23.452-1.3"/>
</svg>
