<svg xmlns="http://www.w3.org/2000/svg" width="1000" height="1000" viewBox="0 0 1000 1000">
  <defs>
    <style>
      .cls-1 {
        fill: #f4553c;
      }

      .cls-2, .cls-3 {
        fill: #fff;
      }

      .cls-2 {
        fill-rule: evenodd;
      }
    </style>
  </defs>
  <rect id="矩形_2" data-name="矩形 2" class="cls-1" width="1000" height="1000" rx="225" ry="225"/>
  <path id="矩形_1" data-name="矩形 1" class="cls-2" d="M174,325l38-1c26.033,0.791,50.628,21.913,53,49V741a50,50,0,0,1-50,50H178a50,50,0,0,1-50-50V377C130.108,349.122,150.865,327.372,174,325Z"/>
  <rect id="矩形_1_拷贝" data-name="矩形 1 拷贝" class="cls-3" x="427" y="373" width="137" height="418" rx="50" ry="50"/>
  <path id="矩形_1_拷贝_2" data-name="矩形 1 拷贝 2" class="cls-2" d="M770,383c9.752-8.672,22.2-16.361,38,0,17.639,18.445,51.3,65.386,54,93l1,265c0,27.614-22.386,43-50,43H776c-27.614,0-50-17.386-50-45l-1-263C729.453,424.213,762.366,389.361,770,383Z"/>
  <path id="椭圆_1" data-name="椭圆 1" class="cls-2" d="M794,200.692a76.923,76.923,0,1,1-76.923,76.923A76.924,76.924,0,0,1,794,200.692Z"/>
  <path id="形状_1" data-name="形状 1" class="cls-2" d="M245,351c38.649-28.677,105.725-35.716,148-29,62.525,9.933,98.668,47.43,118,47,16.917-.376,42.913-25.056,80-38,31.9-11.135,74.266-11.334,100-6,32.395,7.6,20.076,28.93,14,59-4.889,22.648-11.211,30.344-21,38-10.6,12.279-127.126-16.773-120,130-5.461,94.325-137.07-51.388-137-10s6.181-46.451-21-84c-10.4-13.773-25.336-27-61-27s-77.457,24.3-80,84"/>
</svg>
