<?xml version="1.0" encoding="utf-8"?>
<!-- Generator: Adobe Illustrator 25.4.1, SVG Export Plug-In . SVG Version: 6.00 Build 0)  -->
<svg version="1.1" id="" xmlns="http://www.w3.org/2000/svg" xmlns:xlink="http://www.w3.org/1999/xlink" x="0px" y="0px"
	 viewBox="0 0 1000 1000" style="enable-background:new 0 0 1000 1000;" xml:space="preserve">
<path d="M492.5,447.8l-1.2-405.7h-77.1L264.7,294.2L112.9,42.1H35.2v405.7h88.1V209.6l118.8,195.3h42.3l119.4-200.5l0.6,243.4H492.5
	z M781,454.7c115.3,0,183.7-66.1,183.7-185.5V42.1H872v223.7c0,77.1-33,109-90.4,109c-56.8,0-90.4-31.9-90.4-109V42.1h-93.9v227.2
	C597.3,388.7,665.7,454.7,781,454.7z M260.4,957.9c115.9,0,172.1-58,172.1-125.8c0-148.9-235.9-97.4-235.9-172.1
	c0-25.5,21.4-46.4,77.1-46.4c35.9,0,74.8,10.4,112.4,31.9l29-71.3c-37.7-23.8-89.8-35.9-140.8-35.9c-115.3,0-171,57.4-171,126.3
	c0,150.7,235.9,98.5,235.9,174.4c0,24.9-22.6,43.5-78.2,43.5c-48.7,0-99.7-17.4-133.9-42.3l-31.9,70.7
	C131.2,938.8,196.1,957.9,260.4,957.9z M717.3,875.6v-93.9h188.3v-73H717.3v-88.1h213.3v-75.3H624v405.7h314.1v-75.3H717.3z"/>
</svg>
