<?xml version="1.0" encoding="utf-8"?>
<!-- Generator: Adobe Illustrator 25.4.1, SVG Export Plug-In . SVG Version: 6.00 Build 0)  -->
<svg version="1.1" id="Layer_1" xmlns="http://www.w3.org/2000/svg" xmlns:xlink="http://www.w3.org/1999/xlink" x="0px" y="0px"
	 viewBox="0 0 1000 1000" style="enable-background:new 0 0 1000 1000;" xml:space="preserve">
<style type="text/css">
	.st0{fill:#E81D5C;}
</style>
<path class="st0" d="M598.4,435.9L598.4,435.9c-5.2-2.1-11.4-3.1-16.5-4.1l-2.1-1c-5.2-1-10.3-3.1-16.5-4.1l0,0
	c-37.1,22.7-93.9,57.7-93.9,57.7c-24.8,14.4-40.2,41.3-39.2,71.2c0,0-2.1,72.2-3.1,113.5c25.8-22.7,50.6-45.4,78.4-65
	c14.4-11.4,29.9-20.6,46.4-29.9c16.5-8.3,34.1-14.4,52.6-17.5c18.6-3.1,37.2-2.1,54.7,2.1c17.5,5.2,34.1,14.4,47.5,26.8
	c3.1,3.1,7.2,7.2,10.3,11.4c20.6,24.8,29.9,56.8,24.8,88.7l0,0c-1-18.6-12.4-35.1-29.9-43.3c-25.8-10.3-65,0-108.4,48.5
	c-27.9,32-57.8,82.6-97,155.8c-7.2,14.4-14.4,27.9-21.7,41.3l267.3-154.8c32-18.6,34.1-56.8,34.1-62.9v-161
	c-36.1-27.9-99.1-48.5-146.5-61.9C624.2,443.2,609.8,439,598.4,435.9z"/>
<path class="st0" d="M734.6,632c-6.2-16.5-16.5-32-28.9-44.4c-13.4-12.4-28.9-20.6-46.4-24.8s-35.1-4.1-52.6-1s-34.1,10.3-49.5,18.6
	c-15.5,9.3-29.9,19.6-44.4,31c-27.9,22.7-54.7,47.5-80.5,72.2c-26.8,24.8-51.6,50.6-79.5,75.3C316.7,795,262,829.1,231,835.3
	c-34.1,7.2-65,1-67.1-26.8l0,0c-1-1-2.1-1-3.1-2.1l-7.2-2.1l-12.4-6.2c-16.5-8.3-32-16.5-48.5-25.8c-13.4,49.5,1,88.7,22.7,113.5
	c10.3,11.4,23.7,19.6,38.2,24.8c29.9,10.3,61.9,10.3,92.9,1c15.5-5.2,29.9-11.4,43.3-19.6c14.4-8.3,27.9-17.5,40.2-27.9
	c25.8-20.6,50.6-43.3,73.3-67.1c23.7-23.7,45.4-48.5,68.1-73.3s44.4-50.6,68.1-74.3c12.4-11.4,25.8-22.7,39.2-32
	c7.2-5.2,14.4-8.3,22.7-12.4c8.3-3.1,16.5-6.2,24.8-7.2c16.5-3.1,34.1-3.1,50.6,1c8.3,2.1,15.5,6.2,22.7,10.3
	c7.2,5.2,13.4,10.3,18.6,17.5c-5.2-6.2-11.4-12.4-18.6-16.5c-7.2-4.1-14.4-7.2-22.7-9.3c-16.5-3.1-33-3.1-49.5,1
	c-8.3,2.1-15.5,4.1-23.7,8.3c-7.2,4.1-14.4,8.3-21.7,12.4c-13.4,9.3-25.8,20.6-37.2,32c-23.7,23.7-44.4,49.5-66,75.3
	c-21.7,25.8-43.3,51.6-66,76.4c-22.7,24.8-47.5,48.5-73.3,70.2c-13.4,11.4-26.8,20.6-41.3,29.9c-14.4,9.3-31,17.5-47.5,22.7
	c-32,11.4-69.1,11.4-103.2,1c-2.1-1-4.1-2.1-6.2-2.1c48.5,42.3,122.8,52.6,189.9,9.3c15.5-10.3,31-22.7,44.4-36.1
	c15.5-15.5,29.9-32,44.4-49.5c23.7-28.9,49.5-62.9,75.3-99.1c43.3-57.8,76.4-94.9,106.3-115.6c46.4-32,86.7-25.8,112.5-6.2
	c16.5,13.4,27.9,33,28.9,54.7C742.9,667.1,740.8,648.5,734.6,632z"/>
<path class="st0" d="M105.1,745.5c16.5,9.3,33,17.5,49.5,26.8l23.7,13.4c7.2,4.1,14.4,6.2,21.7,8.3c15.5,3.1,32,3.1,48.5,0
	c16.5-4.1,33-9.3,47.5-17.5c7.2-4.1,15.5-8.3,21.7-13.4c7.2-5.2,14.4-10.3,20.6-16.5c23.7-19.6,46.4-41.3,70.2-62.9
	c-1-34.1-3.1-128-3.1-128c1-28.9-14.4-55.7-39.2-70.2c0,0-91.8-56.8-119.7-73.3s-54.7-33-82.6-50.6c-21.7-13.4-42.3-26.8-62.9-40.2
	l0,0c-6.2-4.1-12.4-7.2-18.6-11.4c28.9,14.4,56.8,29.9,85.7,44.4s56.8,29.9,84.6,45.4s121.8,66,121.8,66c25.8,14.4,57.8,14.4,83.6,0
	c0,0,44.4-23.7,80.5-43.3c-20.6-5.2-41.3-10.3-62.9-15.5c-129-31-275.5-65-347.8-130c-4.1-4.1-8.3-8.3-12.4-11.4l-1-1
	c-3.1-3.1-5.2-5.2-8.3-8.3l0,0l-19.6,11.4c0,0-5.2,3.1-13.4,7.2c-8.3,4.1-14.4,11.4-18.6,18.6l0,0v1l0,0l0,0
	c-2.1,8.3-4.1,18.6-4.1,28.9V667c0,43.3,18.6,57.8,34.1,67.1l17.5,9.3L105.1,745.5z"/>
<path class="st0" d="M261,171.8c13.4,3.1,25.8,5.2,39.2,6.2c6.2,1,13.4,1,19.6,1l20.6,1c54.7,1,109.4,0,164.1-1
	c29.9,0,58.8-1,88.7-1L451.9,95.4c-20.6-11.4-45.4-11.4-66,0l-26.8,15.5l-102.3,58.8C257.9,170.7,258.9,170.7,261,171.8z"/>
<path class="st0" d="M301.2,128.4c-8.3-7.2-16.5-12.4-25.8-17.5c-6.2-3.1-11.4-5.2-18.6-7.2c-6.2-2.1-12.4-2.1-18.6-3.1
	c-11.4-1-23.7,2.1-33,9.3c-4.1,3.1-7.2,7.2-8.3,12.4s0,9.3,2.1,13.4c6.2,10.3,14.4,17.5,24.8,22.7l6.2-2.1
	c0-14.4,21.7-28.9,52.6-20.6L301.2,128.4z"/>
<path class="st0" d="M935.9,336.9c-10.3-23.7-25.8-44.4-45.4-60.9c-19.6-17.5-41.3-31-66-40.2C775,216.2,721.3,209,667.6,205.9
	c-53.7-3.1-108.4-3.1-163-3.1s-109.4,1-165.1-2.1l-20.6-1c-7.2,0-14.4-1-20.6-2.1c-14.4-1-27.9-4.1-42.3-7.2
	c-14.4-3.1-27.9-8.3-41.3-14.4c-7.2-3.1-13.4-8.3-18.6-12.4c-6.2-5.2-11.4-12.4-14.4-19.6c-4.1-8.3-4.1-17.5-2.1-25.8
	s8.3-15.5,15.5-20.6c13.4-9.3,28.9-12.4,44.4-10.3c7.2,1,14.4,3.1,21.7,6.2c7.2,3.1,13.4,6.2,18.6,10.3c9.3,7.2,17.5,15.5,23.7,24.8
	c17.5-7.2,36.1-14.4,50.6-19.6C294,7.7,162.9,2.5,102,65.5c-45.4,45.4-53.7,130,15.5,191.9c4.1,4.1,8.3,7.2,13.4,11.4
	c94.9,74.3,320.9,81.5,467.5,105.3c11.4,2.1,24.8,4.1,41.3,6.2c71.2,12.4,175.4,34.1,175.4,86.7v120.7
	c23.7-12.4,46.4-26.8,67.1-44.4c19.6-16.5,36.1-37.2,48.5-59.9c12.4-22.7,18.6-47.5,19.6-73.3C951.3,385.4,946.2,359.6,935.9,336.9z
	 M855.4,494.8c-5.2,19.6-15.5,38.2-29.9,53.7c6.2-18.6,11.4-37.2,14.4-56.8c3.1-18.6,3.1-37.2-1-55.7c-4.1-17.5-11.4-35.1-23.7-48.5
	c-11.4-14.5-25.9-25.9-42.4-34.1c-17.5-8.3-35.1-14.4-53.7-18.6c-18.6-4.1-38.2-7.2-57.8-9.3c-39.2-4.1-78.4-5.2-118.7-6.2
	c-79.5-3.1-158.9-4.1-238.4-15.5c-39.2-5.2-78.4-14.4-116.6-26.8c-18.6-6.2-37.2-15.5-53.7-25.8s-32-24.8-42.3-41.3
	c12.4,15.5,26.8,28.9,44.4,38.2c17.5,10.3,35.1,17.5,53.7,23.7c38.2,11.4,76.4,18.6,116.6,21.7c39.2,4.1,78.4,6.2,118.7,7.2
	c39.2,1,79.5,2.1,118.7,2.1c19.6,0,40.2,1,59.9,1c19.6,1,40.2,1,59.9,3.1c20.6,2.1,40.2,4.1,59.9,8.3c20.6,4.1,40.2,10.3,58.8,19.6
	c18.6,9.3,36.1,22.7,49.5,38.2C858.5,408.1,867.7,453.5,855.4,494.8L855.4,494.8z"/>
</svg>
