<?xml version="1.0" encoding="utf-8"?>
<!-- Generator: Adobe Illustrator 25.4.1, SVG Export Plug-In . SVG Version: 6.00 Build 0)  -->
<svg version="1.1" id="Pinterest" xmlns="http://www.w3.org/2000/svg" xmlns:xlink="http://www.w3.org/1999/xlink" x="0px" y="0px"
	 viewBox="0 0 1000 1000" style="enable-background:new 0 0 1000 1000;" xml:space="preserve">
<style type="text/css">
	.st0{fill:#E60023;}
</style>
<path class="st0" d="M0,500c0,213.5,133.8,395.7,322.1,467.4c-4.6-39-9.5-103.4,1-148.6c9-38.8,58.4-247.4,58.4-247.4
	s-14.9-29.8-14.9-73.9c0-69.2,40.1-120.8,90-120.8c42.5,0,63,31.9,63,70.1c0,42.7-27.2,106.5-41.2,165.8c-11.7,49.5,24.9,90,73.7,90
	c88.5,0,156.5-93.3,156.5-228c0-119.2-85.7-202.5-208-202.5C359.1,272,276,378.2,276,488c0,42.8,16.5,88.6,37,113.6
	c3.6,3.8,4.9,9.3,3.5,14.3c-3.8,15.8-12.2,49.5-13.8,56.5c-2.2,9.1-7.2,11-16.7,6.6C223.8,650,185,559.2,185,486.2
	c0-157,114-301.2,328.8-301.2c172.7,0,306.9,123,306.9,287.5C820.7,644,712.5,782,562.4,782c-50.5,0-97.8-26.2-114.1-57.2
	c0,0-25,95.1-31,118.3C405.5,888.3,373,945.5,352.7,978c46.6,14.3,96,22,147.3,22c276.1,0,500-223.9,500-500S776.1,0,500,0
	S0,223.9,0,500"/>
</svg>
