<?xml version="1.0" encoding="utf-8"?>
<!-- Generator: Adobe Illustrator 25.4.1, SVG Export Plug-In . SVG Version: 6.00 Build 0)  -->
<svg version="1.1" id="1" xmlns="http://www.w3.org/2000/svg" xmlns:xlink="http://www.w3.org/1999/xlink" x="0px" y="0px"
	 viewBox="0 0 1000 1000" style="enable-background:new 0 0 1000 1000;" xml:space="preserve">
<style type="text/css">
	.st0{fill:#FFFFFF;}
</style>
<path d="M775,1000H225C100.7,1000,0,899.3,0,775V225C0,100.7,100.7,0,225,0h550c124.3,0,225,100.7,225,225v550
	C1000,899.3,899.3,1000,775,1000z"/>
<path class="st0" d="M324.9,233.5c92.6-2.1,179.4,73.2,189.2,165.5c11.7,81.1-36,165.4-110.8,198.3c-45.3,22.5-96.5,15.6-145.2,16.7
	h-47.6v152.5h-75.4c0.1-117.7-0.3-235.4,0.2-353.1c2.5-87.7,74.3-166.2,161-177.9C305.7,234.2,315.4,233.5,324.9,233.5
	C324.9,233.5,324.9,233.5,324.9,233.5z M324.9,538.6c54.4,1.3,105.4-41.1,113.6-95c10.8-54.2-23.8-112.5-76.7-128.8
	c-51.1-18.1-112.6,5.7-137.5,54c-19.3,33-12.4,72-13.7,108.3v61.6L324.9,538.6L324.9,538.6z M663.8,486.8h2.7l106,141.3h92.4
	l-144-195.7l127.7-184.7h-92.4l-89.7,130.4h-2.7l-89.7-130.4h-92.4l127.7,184.8l-144,195.6h92.4L663.8,486.8z"/>
</svg>
