<svg xmlns="http://www.w3.org/2000/svg" width="1000" height="1000" viewBox="0 0 1000 1000">
  <defs>
    <style>
      .cls-1 {
        fill-rule: evenodd;
      }
    </style>
  </defs>
  <path id="声呐元" class="cls-1" d="M170.33,340.49H57.686v2.47a16.749,16.749,0,0,0,2.141,8.07q5.763,9.059,14.986,9.058H170.33v18.279H74.154v2.471a19.894,19.894,0,0,0,.823,5.27q5.1,12.022,17.292,12.022H298.124a17.618,17.618,0,0,0,8.564-1.977q9.549-5.6,9.552-15.315v-2.471H220.064V360.088h95.517a16.755,16.755,0,0,0,8.069-2.141q9.056-5.763,9.058-14.987v-2.47H220.064V321.716H170.33V340.49ZM77.777,487.059q0,32.773-13.339,54.016v0.165h28.49a33.15,33.15,0,0,0,17.457-5.105q9.387-6.256,13.339-18.445,3.621-17.126,3.623-28.326h166.66a22.845,22.845,0,0,0,11.528-3.458q11.031-7.738,11.034-19.433V429.584a16.883,16.883,0,0,0-2.306-7.905Q306.521,411.3,294.007,411.3H136.24V411.8a19.929,19.929,0,0,0,1.976,9.552q5.6,9.553,15.316,9.552h18.774v38.865h-44.63V411.3h-49.9v75.755ZM255.306,430.9a21.45,21.45,0,0,1,3.459.329q8.067,2.637,8.069,8.564v18.444a8.635,8.635,0,0,1-.494,3.294q-2.964,8.236-11.692,8.234H222.04V430.9h33.266ZM543.662,325.01q-7.25,4.612-10.211,14.163-0.827,5.766-1.153,5.764H513.524v2.141q0,8.237,7.246,14,5.27,3.3,8.729,3.293-19.107,120.549-21.245,134.382h15.481a23.693,23.693,0,0,0,15.809-6.258q5.1-5.435,6.423-10.7,2.3-13.173,8.234-51.875h0.165L563.588,478a24.936,24.936,0,0,0,3.129,9.387q7.412,11.364,19.762,11.363H596.69q-4.779-26.346-13.01-68.837-3.624-21.573-5.27-24.7-1.32-3.786-6.752-8.893-5.929-4.115-11.2-4.611h-0.164q4.115-25.691,4.281-27.338h21.9a14.4,14.4,0,0,1,2.306.165q9.221,1.976,9.222,8.893v57.639q0,22.233-.164,63.9,0,6.916-2.8,19.432A97.823,97.823,0,0,1,584.5,541.24q16.8-.162,21.244-0.165,12.186,0,16.3-3.623,6.585-4.279,10.375-15.645a113.251,113.251,0,0,0,3.459-26.843q-0.167-29.643-.165-48.582V363.711a17.188,17.188,0,0,0-2.964-9.387q-7.9-9.387-19.268-9.387H567.705q3.292-20.585,3.623-23.221v-0.164h-15.48a25.123,25.123,0,0,0-12.186,3.458h0ZM360.7,518.184a24.307,24.307,0,0,0,2.47,10.375q7.738,12.684,20.585,12.681h53.029A24.084,24.084,0,0,0,446,539.264q13.833-7.08,13.833-22.233V348.724a15.334,15.334,0,0,0-2.47-8.563q-7.083-10.537-21.738-10.54H404.5v8.07q0,7.41,7.41,11.033l5.764,1.318q6.916,2.8,6.917,7.905V510.609a13.978,13.978,0,0,1-.329,2.47q-2.966,8.565-12.352,8.564h-3.293a25.919,25.919,0,0,1-3.953-.33q-8.892-2.8-8.893-12.516V329.621H360.7V518.184ZM468.566,541.24h38.042v-196.3H468.566v196.3ZM682.154,332.091a17.747,17.747,0,0,0,3.623,11.034q5.6,6.916,13.834,6.917H900.855a18.2,18.2,0,0,0,5.763-.988q11.692-5.1,11.693-16.963v-1.647H682.154v1.647Zm-16.962,66.862a16.744,16.744,0,0,0,2.141,8.069q5.761,9.06,15.315,9.058H728.6l-59.78,125v0.165H700.6q14.983,0,24.373-13.834l42.488-88.435q10.375-21.9,11.034-22.891h45.947V522.96a16.594,16.594,0,0,0,2.141,7.575,24.066,24.066,0,0,0,20.75,10.705h73.285a16.755,16.755,0,0,0,8.069-2.141q9.055-5.763,9.058-14.986v-2.47H885.7a23.612,23.612,0,0,1-3.459-.33q-8.07-2.633-8.069-8.4V416.08h43.641a16.7,16.7,0,0,0,8.564-2.305q8.892-5.6,8.892-14.822v-2.47H665.192v2.47Z"/>
  <path id="SONARMETA" class="cls-1" d="M53.444,579.132q-8.374,4.388-8.374,13.159v24.225a15.638,15.638,0,0,0,1.695,7.277q4.685,7.38,12.262,7.378H85.744a8.87,8.87,0,0,1,2.791.5q4.486,2,4.486,7.377V660.28a11.123,11.123,0,0,1-.3,2.692,7.006,7.006,0,0,1-7.178,5.184H74.18a11.7,11.7,0,0,1-2.791-.4q-4.587-2.292-4.586-6.38v-0.9H43.375v3.489a14.461,14.461,0,0,0,1.994,7.477q4.685,6.877,11.863,6.878h45.559a13.594,13.594,0,0,0,7.776-2.691q5.78-4.685,5.782-10.867V634.56a13.588,13.588,0,0,0-2.692-7.776Q108.97,621,102.791,621H76.273a16.106,16.106,0,0,1-1.794-.1q-5.981-1.494-5.981-7.177V595.182a5.245,5.245,0,0,1,.3-1.994,6.93,6.93,0,0,1,7.078-5.084h9.869a10.319,10.319,0,0,1,2.592.4,7.3,7.3,0,0,1,4.685,7.178v0.1h23.328v-4.286a13.588,13.588,0,0,0-2.692-7.776q-4.687-5.781-10.866-5.782H58.927a13.84,13.84,0,0,0-5.483,1.2h0Zm100.185,1.1q-7.378,5.083-7.377,13.159v69.484a15.2,15.2,0,0,0,3.29,9.471q5.084,5.982,11.863,5.981h44.462a15.062,15.062,0,0,0,8.374-2.691q6.778-5.085,6.779-12.661V593.288a15.32,15.32,0,0,0-5.483-11.664,14.981,14.981,0,0,0-9.47-3.688H161.405a15.2,15.2,0,0,0-7.776,2.293h0Zm16.15,13.458q1.693-5.582,7.277-5.583h13.16a11.766,11.766,0,0,1,2.791.4q4.584,2.295,4.586,6.28v66.694a8.3,8.3,0,0,1-.1,1.1q-1.7,5.585-7.277,5.583h-13.16a10.861,10.861,0,0,1-2.791-.4q-4.587-2.292-4.586-6.28V594.783a8.19,8.19,0,0,1,.1-1.1h0Zm80.048-12.96q-2.493,2.094-2.493,7.676v89.921h23.428V619.906q0-2.094,1.794-2.094a1.811,1.811,0,0,1,1.3.6l25.621,50.743q3.588,9.173,10.766,9.171h8.574a8.611,8.611,0,0,0,3.29-.7q5.281-2.788,5.283-7.775V577.936H304.059v58.419q0,2.092-1.8,2.093h-0.1q-1.2,0-2.292-2.592-20.437-40.772-24.524-48.749-3.59-9.171-10.767-9.171h-8.474a8.257,8.257,0,0,0-6.28,2.791h0Zm127-.2a12.124,12.124,0,0,0-2.792,3.788q-0.8,2.691-24.823,94.008h13.06a11.284,11.284,0,0,0,3.589-.6,14.173,14.173,0,0,0,7.975-6.081q1.395-2.393,3.888-12.86h26.917q0,0.2,1.694,6.679,1.5,6.58,4.686,9.172a13.72,13.72,0,0,0,9.072,3.688h13.059q-21.137-80.248-22.829-86.432-1.7-7.676-2.891-9.171-3.49-4.785-8.474-4.785H383.408a10.075,10.075,0,0,0-6.579,2.592h0Zm12.361,15.851q0.3-2.79,1.895-2.792h0.2a2.02,2.02,0,0,1,1.4.7q0.3,0.7,9.171,54.232H380.517Zm71.375-16.848q-7.576,4.487-7.576,12.661v86.132h23.427V628.678h16.349a17.659,17.659,0,0,1,1.2,2.493q13.359,32.4,14.157,33.994a19.742,19.742,0,0,0,4.685,8.075,17.038,17.038,0,0,0,11.963,5.084h12.162l-20.636-49.646h2.293a15.648,15.648,0,0,0,8.972-2.492q6.08-4.883,6.081-11.165V591.494a13.594,13.594,0,0,0-2.691-7.776q-4.687-5.781-10.867-5.782H466.846a13.556,13.556,0,0,0-6.281,1.595h0Zm16.15,13.558a7.023,7.023,0,0,1,7.078-4.985h19.041a7.054,7.054,0,0,1,4.885,1.695q2.591,1.794,2.592,6.679v13.558a12.737,12.737,0,0,1-.4,3.589q-1.995,4.785-6.679,4.785H476.416V595.083a6.29,6.29,0,0,1,.3-1.994h0Zm93.207-16.649a7.71,7.71,0,0,0-3.988,4.187q-0.7,3.888-14.953,95.6h9.371a15.51,15.51,0,0,0,7.875-2.193q4.386-2.492,6.48-8.574,0.5-3.588,5.483-55.926,0-3.289,1.994-3.29a2.056,2.056,0,0,1,1.794,1.2q3.788,46.757,4.486,54.033,0.7,11.763,1.3,11.763a5.479,5.479,0,0,0,4.885,2.991h8.274q3.59,0,5.284-3.888,0.7-7.277,5.184-62.506,0-3.59,1.7-3.589h0.5a1.793,1.793,0,0,1,1.595,1.1q4.884,50.942,5.184,53.234a17.463,17.463,0,0,0,1.894,8.275q4.884,7.379,12.86,7.377h9.471q-14.556-93.808-14.954-95.4-2-4.985-6.878-4.985H612.889q-4.787,0-6.979,5.184-0.3,2.094-5.084,49.846,0,3.689-1.994,3.688h-0.1a2.028,2.028,0,0,1-1.694-1q-4.886-48.15-4.985-48.549a10.773,10.773,0,0,0-1.395-5.982,7.237,7.237,0,0,0-5.783-3.19H572.514a7.18,7.18,0,0,0-2.592.6h0ZM672.1,580.627q-5.783,4.688-5.782,10.867v73.272a13.594,13.594,0,0,0,2.691,7.776q4.686,5.783,10.867,5.782h50.244a9.367,9.367,0,0,0,3.09-.6q5.482-2.79,5.483-7.975v-1.6H697.123a9.084,9.084,0,0,1-2.691-.4q-4.787-1.893-4.786-7.477V633.264h37.783a15.866,15.866,0,0,0,2.891-.3q6.48-2.49,6.48-8.773V623H689.646V595.98a11.235,11.235,0,0,1,.4-3.091q2.094-4.785,6.879-4.785h33a7.528,7.528,0,0,0,3.589-.8q5.183-2.693,5.184-7.776v-1.595H679.877a13.594,13.594,0,0,0-7.776,2.691h0Zm96.8-1.2a8.612,8.612,0,0,0,.7,3.29q2.79,5.383,7.976,5.383h17.047v90.22h23.327V588.1h17.048a8.545,8.545,0,0,0,4.286-1.2q4.386-2.891,4.387-7.477v-1.5H768.9v1.5Zm126.8,1.1a12.1,12.1,0,0,0-2.791,3.788q-0.8,2.691-24.823,94.008h13.059a11.279,11.279,0,0,0,3.589-.6,14.172,14.172,0,0,0,7.976-6.081q1.394-2.393,3.887-12.86h26.917q0,0.2,1.695,6.679,1.5,6.58,4.685,9.172a13.724,13.724,0,0,0,9.072,3.688h13.06q-21.136-80.248-22.83-86.432-1.7-7.676-2.891-9.171-3.49-4.785-8.473-4.785H902.279a10.077,10.077,0,0,0-6.58,2.592h0Zm12.362,15.851q0.3-2.79,1.894-2.792h0.2a2.018,2.018,0,0,1,1.4.7q0.3,0.7,9.172,54.232H899.388Z"/>
</svg>
