<?xml version="1.0" encoding="utf-8"?>
<!-- Generator: Adobe Illustrator 25.4.1, SVG Export Plug-In . SVG Version: 6.00 Build 0)  -->
<svg version="1.1" id="图层_1" xmlns="http://www.w3.org/2000/svg" xmlns:xlink="http://www.w3.org/1999/xlink" x="0px" y="0px"
	 viewBox="0 0 1000 1000" style="enable-background:new 0 0 1000 1000;" xml:space="preserve">
<style type="text/css">
	.st0{fill-rule:evenodd;clip-rule:evenodd;fill:#2A65F5;}
	.st1{fill-rule:evenodd;clip-rule:evenodd;fill:#00DCFF;}
	.st2{fill-rule:evenodd;clip-rule:evenodd;fill:#FFFFFF;}
</style>
<g>
	<path class="st0" d="M778.75,102.4H198.02c-8.02,0-14.88,5.75-16.28,13.65L47.38,878.11c-1.56,8.99,4.46,17.55,13.45,19.11
		c0.93,0.16,1.88,0.24,2.82,0.24h320.13l25.36-7.86h148.68l20.78,7.86H825.2c8.01,0,14.87-5.74,16.28-13.62l110.5-626.83
		L778.78,102.4H778.75z"/>
	<path class="st1" d="M771.17,257.01H952L778.73,102.4l-23.84,135.24c-1.58,8.99,4.43,17.56,13.42,19.13
		C769.26,256.93,770.21,257.01,771.17,257.01"/>
	<path class="st2" d="M518.35,135.02l-32.5,184.81l-316.8,0.55l137.64,148.93h152.76l-75.67,428.17h194.81l75.77-428.17h230.01
		l8.01-0.18L518.35,135.02z"/>
</g>
</svg>
