<?xml version="1.0" encoding="utf-8"?>
<!-- Generator: Adobe Illustrator 25.4.1, SVG Export Plug-In . SVG Version: 6.00 Build 0)  -->
<svg version="1.1" id="图层_1" xmlns="http://www.w3.org/2000/svg" xmlns:xlink="http://www.w3.org/1999/xlink" x="0px" y="0px"
	 viewBox="0 0 1000 1000" style="enable-background:new 0 0 1000 1000;" xml:space="preserve">
<style type="text/css">
	.st0{fill:#D81E06;}
	.st1{fill:#FFFFFF;}
</style>
<circle class="st0" cx="500" cy="500" r="500"/>
<g>
	<path class="st1" d="M147.73,238.21c0,0,99.23,36.56,203.67,5.22c99.23-36.56,141.01-78.34,188.01-67.89
		c47,10.44,57.45,41.78,52.22,62.67s-5.22,41.78-41.78,52.22c-36.56,15.67-67.89-5.22-62.67-36.56c0,0,10.44,20.89,26.11,10.44
		c15.67-10.44,13.7-42.32-15.67-36.56c-36.64,16.24-83.56,36.56-125.34,47C309.63,290.43,210.4,285.21,147.73,238.21z
		 M215.63,295.65c0,0,82.37,29.35,203.67-5.22c0,0,57.45-5.22,62.67,31.33c5.22,41.78-36.56,67.89-99.23,73.11
		c-52.22,15.67-208.9,67.89-224.56,224.56c0,0-10.44,78.34,10.44,109.67c0,0-99.2-138.93,8.38-278.12c2.75-3.56,13.3-14.43,17-17
		c11.17-7.76,32.14-22.96,32.07-39.12C226,379,192,388,173.85,410.55c-15.67,20.89-57.45,88.78-99.23,88.78
		c0,0,13.38-11.33,26.11-26.11c31.33-36.56,36.56-88.78,83.56-109.67c41.78-20.89,73.11-15.67,130.56-5.22
		c57.45,10.44,83.56-5.22,78.34-20.89c0-10.44-26.11-5.22-26.11-5.22S267.85,347.88,215.63,295.65z M763.98,165.09
		C769,166,771,167,774.43,170.32c5.22,5.22,10.44,15.67-5.22,36.56s-67.89,78.34-141.01,83.56
		c-73.11,10.44-114.89,41.78-125.34,83.56c-5.22,41.78,10.44,83.56,57.45,99.23c47,15.67,78.34,0,99.23,0
		C685.64,473.22,693,476,698,494c2,10-1.91,26.22-17.58,31.44c0,0,67.89-10.44,52.22-67.89c0,0,0-31.33-88.78-26.11
		C571,441,573.97,392.66,574,390s0-43,64.64-63.01c67.89-20.89,177.56-57.45,188.01-125.34
		C827.88,198.4,831.87,138.98,763.98,165.09L763.98,165.09z"/>
	<path class="st1" d="M603.77,389.66c0,0,47-41.78,130.56-15.67c0,0,20.89,5.22,26.11-15.67c5.22-20.89-31.33-20.89-26.11,0
		c0,0-15.67-31.33,20.89-31.33s36.56,31.33,36.56,31.33s0,26.11-15.67,31.33c10.44,10.44,20.89,15.67,36.56,15.67
		c10.44,0,15.67,0,26.11-5.22c5.22-3.1,10.44-10.44,10.44-15.67c0-15.67-14.22-30.44-31.33-15.67c-5.59,4.83-5.22,15.67-5.22,20.89
		c5.22,5.22-34.67-10.66,0-47c0,0,5.22-15.67-5.22-15.67C802,327,801,328,798,332c-2,5-1,10.66-1,10.66c0,5.22-11-36.66,20.89-36.56
		c0,0,26.11,0,20.89,31.33c20.89,0,36.56,15.67,41.78,36.56c5.22,36.56-15.67,83.56-67.89,73.11c0,0-26.11-5.22-73.11-31.33
		C697.77,384.44,666.44,363.55,603.77,389.66L603.77,389.66z M497.64,614.22c5.22-10.44,3.36-21.22,0-26.11
		C493,582,488,576,476.75,572.44C440.19,562,325.3,551.55,293.96,697.78C267.85,844.01,508.08,922.35,602.09,911.9
		c0,0-323.79,78.34-423.02-214.12c0,0-52.22-229.79,224.56-266.34C428.9,427.88,612.53,431.44,497.64,614.22z"/>
</g>
</svg>
