<?xml version="1.0" encoding="utf-8"?>
<!-- Generator: Adobe Illustrator 25.4.1, SVG Export Plug-In . SVG Version: 6.00 Build 0)  -->
<svg version="1.1" id="图层_1" xmlns="http://www.w3.org/2000/svg" xmlns:xlink="http://www.w3.org/1999/xlink" x="0px" y="0px"
	 viewBox="0 0 1000 1000" style="enable-background:new 0 0 1000 1000;" xml:space="preserve">
<style type="text/css">
	.st0{fill:#FF0000;}
</style>
<path class="st0" d="M421,642.4V365.9l237,138.7L421,642.4z M964.6,313.2c0,0-9.3-65.8-37.7-94.8c-36.1-38-76.5-38.2-95-40.4
	c-132.7-9.7-331.7-9.7-331.7-9.7h-0.4c0,0-199,0-331.7,9.7c-18.6,2.2-58.9,2.4-95,40.4c-28.4,29-37.6,94.8-37.6,94.8
	S26,390.5,26,467.7v72.5c0,77.3,9.5,154.5,9.5,154.5s9.2,65.8,37.6,94.8c36.1,38,83.5,36.8,104.6,40.8c75.8,7.4,322.3,9.6,322.3,9.6
	s199.2-0.3,331.9-10c18.6-2.3,58.9-2.4,95-40.5c28.4-29,37.7-94.8,37.7-94.8s9.5-77.2,9.5-154.5v-72.4
	C974,390.5,964.6,313.2,964.6,313.2L964.6,313.2z"/>
</svg>
