<?xml version="1.0" encoding="utf-8"?>
<!-- Generator: Adobe Illustrator 25.4.1, SVG Export Plug-In . SVG Version: 6.00 Build 0)  -->
<svg version="1.1" xmlns="http://www.w3.org/2000/svg" xmlns:xlink="http://www.w3.org/1999/xlink" x="0px" y="0px"
	 viewBox="0 0 1000 1000" style="enable-background:new 0 0 1000 1000;" xml:space="preserve">
<style type="text/css">
	.st0{fill:url(#SVGID_1_);}
	.st1{fill:#FFFFFF;}
</style>
<g id="图层_2">
	<linearGradient id="SVGID_1_" gradientUnits="userSpaceOnUse" x1="66.0938" y1="933.9062" x2="933.9062" y2="66.0938">
		<stop  offset="0" style="stop-color:#0164FF"/>
		<stop  offset="1" style="stop-color:#01ABFF"/>
	</linearGradient>
	<path class="st0" d="M775,1000H225C101.25,1000,0,898.75,0,775V225C0,101.25,101.25,0,225,0h550c123.75,0,225,101.25,225,225v550
		C1000,898.75,898.75,1000,775,1000z"/>
</g>
<g id="图层_1">
	<g>
		<path class="st1" d="M458.68,354.3H296.81v280.69h39.66l5.3,33.8l53.63-33.8h63.28V354.3z M390.25,599.93l-31.49,19.83
			l-3.09-19.82h-22.66v-210.8h89.1v210.8h-31.87V599.93z M266.94,480.59h-58.85c0-6.19,0.43-12.54,0.51-19.16v-72.28h67.1v-17.06
			c-0.02-4.73-1.94-9.26-5.31-12.58c-3.39-3.34-7.96-5.21-12.72-5.2H152.9c0.37-1.16,0.74-2.33,1.1-3.35
			c3.6-10.78,15.15-43.71,15.15-43.71c-11.25-0.2-22.3,3-31.71,9.17c-7.49,5.26-11.99,8.96-18.02,25.57
			c-6.99,19.1-13.1,37.53-17.22,48.53c-6.33,17.56-21.63,48.46-21.63,48.46c11.5-0.16,22.82-2.9,33.12-8.02
			c14.71-7.79,22.07-19.74,26.99-37.89l1.18-3.94h30.67v72.28c0,6.57-0.59,12.91-0.96,19.19h-54.15c-9.33,0-18.27,3.65-24.88,10.19
			c-6.58,6.51-10.28,15.37-10.29,24.63h85.78c-1.71,16.3-5.14,32.37-10.22,47.96c-8.87,25.31-22.29,48.8-39.58,69.3
			c-12.91,13.93-26.72,27-41.35,39.12c0,0,41.13,15.44,71.3-12.54c18.24-16.98,34.58-50.12,42.45-75.27
			c7.08-22.39,12.01-45.4,14.72-68.72h78.42v-18c0.02-4.44-1.74-8.7-4.9-11.81C275.71,482.3,271.41,480.55,266.94,480.59z"/>
		<path class="st1" d="M225.01,552.66l-30.38,19.59l66.21,98.01c4.57-9.15,7.55-19,8.83-29.15c2.21-9.63,0.91-19.74-3.68-28.49
			L225.01,552.66z M753.05,493.78V370.86c54.95-2.69,104.98-5.32,124.04-6.35l11.18-0.66c5.09-5.24,11.63-31.48,9.05-39.7
			c-0.96-3.29-2.8-8.75-8.38-7.29c-18.51,4.4-37.28,7.6-56.21,9.55c-36.35,4.22-52.17,5.31-102.56,8.96
			c-88.29,6.4-167.02,9.46-167.02,9.46c-0.02,9.12,3.73,17.84,10.36,24.1c6.64,6.33,15.58,9.68,24.75,9.28
			c29.94-1.25,73.57-3.29,118.23-5.39v120.95H548.52c0,9.24,3.69,18.1,10.29,24.63c6.62,6.54,15.56,10.21,24.86,10.21h132.8v92.98
			c0,11.66-6.1,15.67-16.18,15.95h-51.52c2.18,7.47,5.93,14.39,11,20.29c5.09,5.93,11.37,10.71,18.44,14.02
			c11.46,3.83,23.62,5.08,35.62,3.64c17.87-0.87,38.99-10.86,38.99-46.92v-99.97h148.24c4.49,0,8.81-1.77,11.96-4.92
			c3.18-3.14,4.97-7.4,4.97-11.85v-18.07C918,493.78,753.05,493.78,753.05,493.78z"/>
		<path class="st1" d="M636.94,410.7c-4.72-6.53-11.86-10.91-19.82-12.17c-7.97-1.28-16.13,0.63-22.7,5.32l-4.94,3.57l55.92,76.88
			l29.44-21.29l-37.9-52.31L636.94,410.7z M830.6,408.16L789.54,462l29.44,21.86l59.36-77.89l-4.93-3.64
			c-6.45-4.91-14.6-7.05-22.63-5.94c-8.02,1.1-15.28,5.33-20.19,11.78H830.6z"/>
	</g>
</g>
</svg>
