<?xml version="1.0" encoding="utf-8"?>
<!-- Generator: Adobe Illustrator 25.4.1, SVG Export Plug-In . SVG Version: 6.00 Build 0)  -->
<svg version="1.1" id="图层_2" xmlns="http://www.w3.org/2000/svg" xmlns:xlink="http://www.w3.org/1999/xlink" x="0px" y="0px"
	 viewBox="0 0 1000 1000" style="enable-background:new 0 0 1000 1000;" xml:space="preserve">
<style type="text/css">
	.st0{fill:#FFFFFF;}
</style>
<path d="M775,1000H225C100.7,1000,0,899.3,0,775V225C0,100.7,100.7,0,225,0h550c124.3,0,225,100.7,225,225v550
	C1000,899.3,899.3,1000,775,1000z"/>
<path id="形状结合" class="st0" d="M830,246.7H592.2v70.8v447.2v63.4H830V317.7V246.7z M663.6,757.1V317.6h95.8v439.5H663.6z
	 M333,316.8v154H170.4v70.9H333v35.2L170,828.8h85.2l113.1-176.3l117.6,175.6h84L404,577.1v-35.4h166.8l-17.3-70.9H404v-154H333z"/>
<polygon id="形状备份-3" class="st0" points="235.6,171.2 170.4,317.9 552.2,317.9 552.2,246.3 280.1,246.3 300.5,199.7 "/>
</svg>
